%TF.GenerationSoftware,KiCad,Pcbnew,(6.0.9)*%
%TF.CreationDate,2022-11-26T14:04:05+01:00*%
%TF.ProjectId,SEN_PCB,53454e5f-5043-4422-9e6b-696361645f70,rev?*%
%TF.SameCoordinates,Original*%
%TF.FileFunction,Legend,Bot*%
%TF.FilePolarity,Positive*%
%FSLAX46Y46*%
G04 Gerber Fmt 4.6, Leading zero omitted, Abs format (unit mm)*
G04 Created by KiCad (PCBNEW (6.0.9)) date 2022-11-26 14:04:05*
%MOMM*%
%LPD*%
G01*
G04 APERTURE LIST*
%ADD10C,0.250000*%
G04 APERTURE END LIST*
D10*
X83440476Y-54037380D02*
X83440476Y-53037380D01*
X83107142Y-53751666D01*
X82773809Y-53037380D01*
X82773809Y-54037380D01*
X82345238Y-53751666D02*
X81869047Y-53751666D01*
X82440476Y-54037380D02*
X82107142Y-53037380D01*
X81773809Y-54037380D01*
X81440476Y-54037380D02*
X81440476Y-53037380D01*
X81202380Y-53037380D01*
X81059523Y-53085000D01*
X80964285Y-53180238D01*
X80916666Y-53275476D01*
X80869047Y-53465952D01*
X80869047Y-53608809D01*
X80916666Y-53799285D01*
X80964285Y-53894523D01*
X81059523Y-53989761D01*
X81202380Y-54037380D01*
X81440476Y-54037380D01*
X80440476Y-53513571D02*
X80107142Y-53513571D01*
X79964285Y-54037380D02*
X80440476Y-54037380D01*
X80440476Y-53037380D01*
X79964285Y-53037380D01*
X78440476Y-53513571D02*
X78297619Y-53561190D01*
X78250000Y-53608809D01*
X78202380Y-53704047D01*
X78202380Y-53846904D01*
X78250000Y-53942142D01*
X78297619Y-53989761D01*
X78392857Y-54037380D01*
X78773809Y-54037380D01*
X78773809Y-53037380D01*
X78440476Y-53037380D01*
X78345238Y-53085000D01*
X78297619Y-53132619D01*
X78250000Y-53227857D01*
X78250000Y-53323095D01*
X78297619Y-53418333D01*
X78345238Y-53465952D01*
X78440476Y-53513571D01*
X78773809Y-53513571D01*
X77583333Y-53561190D02*
X77583333Y-54037380D01*
X77916666Y-53037380D02*
X77583333Y-53561190D01*
X77250000Y-53037380D01*
X75821428Y-53513571D02*
X75678571Y-53561190D01*
X75630952Y-53608809D01*
X75583333Y-53704047D01*
X75583333Y-53846904D01*
X75630952Y-53942142D01*
X75678571Y-53989761D01*
X75773809Y-54037380D01*
X76154761Y-54037380D01*
X76154761Y-53037380D01*
X75821428Y-53037380D01*
X75726190Y-53085000D01*
X75678571Y-53132619D01*
X75630952Y-53227857D01*
X75630952Y-53323095D01*
X75678571Y-53418333D01*
X75726190Y-53465952D01*
X75821428Y-53513571D01*
X76154761Y-53513571D01*
X75202380Y-53751666D02*
X74726190Y-53751666D01*
X75297619Y-54037380D02*
X74964285Y-53037380D01*
X74630952Y-54037380D01*
X74345238Y-53989761D02*
X74202380Y-54037380D01*
X73964285Y-54037380D01*
X73869047Y-53989761D01*
X73821428Y-53942142D01*
X73773809Y-53846904D01*
X73773809Y-53751666D01*
X73821428Y-53656428D01*
X73869047Y-53608809D01*
X73964285Y-53561190D01*
X74154761Y-53513571D01*
X74250000Y-53465952D01*
X74297619Y-53418333D01*
X74345238Y-53323095D01*
X74345238Y-53227857D01*
X74297619Y-53132619D01*
X74250000Y-53085000D01*
X74154761Y-53037380D01*
X73916666Y-53037380D01*
X73773809Y-53085000D01*
X73345238Y-53513571D02*
X73011904Y-53513571D01*
X72869047Y-54037380D02*
X73345238Y-54037380D01*
X73345238Y-53037380D01*
X72869047Y-53037380D01*
X72440476Y-54037380D02*
X72440476Y-53037380D01*
X72107142Y-53751666D01*
X71773809Y-53037380D01*
X71773809Y-54037380D01*
X71297619Y-53513571D02*
X70964285Y-53513571D01*
X70821428Y-54037380D02*
X71297619Y-54037380D01*
X71297619Y-53037380D01*
X70821428Y-53037380D01*
X70392857Y-54037380D02*
X70392857Y-53037380D01*
X69821428Y-54037380D01*
X69821428Y-53037380D01*
X69488095Y-53037380D02*
X68916666Y-53037380D01*
X69202380Y-54037380D02*
X69202380Y-53037380D01*
X82607142Y-55647380D02*
X82607142Y-54647380D01*
X82226190Y-54647380D01*
X82130952Y-54695000D01*
X82083333Y-54742619D01*
X82035714Y-54837857D01*
X82035714Y-54980714D01*
X82083333Y-55075952D01*
X82130952Y-55123571D01*
X82226190Y-55171190D01*
X82607142Y-55171190D01*
X81035714Y-55647380D02*
X81369047Y-55171190D01*
X81607142Y-55647380D02*
X81607142Y-54647380D01*
X81226190Y-54647380D01*
X81130952Y-54695000D01*
X81083333Y-54742619D01*
X81035714Y-54837857D01*
X81035714Y-54980714D01*
X81083333Y-55075952D01*
X81130952Y-55123571D01*
X81226190Y-55171190D01*
X81607142Y-55171190D01*
X80416666Y-54647380D02*
X80226190Y-54647380D01*
X80130952Y-54695000D01*
X80035714Y-54790238D01*
X79988095Y-54980714D01*
X79988095Y-55314047D01*
X80035714Y-55504523D01*
X80130952Y-55599761D01*
X80226190Y-55647380D01*
X80416666Y-55647380D01*
X80511904Y-55599761D01*
X80607142Y-55504523D01*
X80654761Y-55314047D01*
X80654761Y-54980714D01*
X80607142Y-54790238D01*
X80511904Y-54695000D01*
X80416666Y-54647380D01*
X79273809Y-54647380D02*
X79273809Y-55361666D01*
X79321428Y-55504523D01*
X79416666Y-55599761D01*
X79559523Y-55647380D01*
X79654761Y-55647380D01*
X78797619Y-55123571D02*
X78464285Y-55123571D01*
X78321428Y-55647380D02*
X78797619Y-55647380D01*
X78797619Y-54647380D01*
X78321428Y-54647380D01*
X77321428Y-55552142D02*
X77369047Y-55599761D01*
X77511904Y-55647380D01*
X77607142Y-55647380D01*
X77750000Y-55599761D01*
X77845238Y-55504523D01*
X77892857Y-55409285D01*
X77940476Y-55218809D01*
X77940476Y-55075952D01*
X77892857Y-54885476D01*
X77845238Y-54790238D01*
X77750000Y-54695000D01*
X77607142Y-54647380D01*
X77511904Y-54647380D01*
X77369047Y-54695000D01*
X77321428Y-54742619D01*
X77035714Y-54647380D02*
X76464285Y-54647380D01*
X76750000Y-55647380D02*
X76750000Y-54647380D01*
X75464285Y-54647380D02*
X75226190Y-55647380D01*
X75035714Y-54933095D01*
X74845238Y-55647380D01*
X74607142Y-54647380D01*
X74273809Y-55361666D02*
X73797619Y-55361666D01*
X74369047Y-55647380D02*
X74035714Y-54647380D01*
X73702380Y-55647380D01*
X73416666Y-55599761D02*
X73273809Y-55647380D01*
X73035714Y-55647380D01*
X72940476Y-55599761D01*
X72892857Y-55552142D01*
X72845238Y-55456904D01*
X72845238Y-55361666D01*
X72892857Y-55266428D01*
X72940476Y-55218809D01*
X73035714Y-55171190D01*
X73226190Y-55123571D01*
X73321428Y-55075952D01*
X73369047Y-55028333D01*
X73416666Y-54933095D01*
X73416666Y-54837857D01*
X73369047Y-54742619D01*
X73321428Y-54695000D01*
X73226190Y-54647380D01*
X72988095Y-54647380D01*
X72845238Y-54695000D01*
X72464285Y-55599761D02*
X72321428Y-55647380D01*
X72083333Y-55647380D01*
X71988095Y-55599761D01*
X71940476Y-55552142D01*
X71892857Y-55456904D01*
X71892857Y-55361666D01*
X71940476Y-55266428D01*
X71988095Y-55218809D01*
X72083333Y-55171190D01*
X72273809Y-55123571D01*
X72369047Y-55075952D01*
X72416666Y-55028333D01*
X72464285Y-54933095D01*
X72464285Y-54837857D01*
X72416666Y-54742619D01*
X72369047Y-54695000D01*
X72273809Y-54647380D01*
X72035714Y-54647380D01*
X71892857Y-54695000D01*
X71464285Y-54647380D02*
X71464285Y-55456904D01*
X71416666Y-55552142D01*
X71369047Y-55599761D01*
X71273809Y-55647380D01*
X71083333Y-55647380D01*
X70988095Y-55599761D01*
X70940476Y-55552142D01*
X70892857Y-55456904D01*
X70892857Y-54647380D01*
X70416666Y-55647380D02*
X70416666Y-54647380D01*
X70035714Y-54647380D01*
X69940476Y-54695000D01*
X69892857Y-54742619D01*
X69845238Y-54837857D01*
X69845238Y-54980714D01*
X69892857Y-55075952D01*
X69940476Y-55123571D01*
X70035714Y-55171190D01*
X70416666Y-55171190D01*
X80821428Y-57209761D02*
X80678571Y-57257380D01*
X80440476Y-57257380D01*
X80345238Y-57209761D01*
X80297619Y-57162142D01*
X80250000Y-57066904D01*
X80250000Y-56971666D01*
X80297619Y-56876428D01*
X80345238Y-56828809D01*
X80440476Y-56781190D01*
X80630952Y-56733571D01*
X80726190Y-56685952D01*
X80773809Y-56638333D01*
X80821428Y-56543095D01*
X80821428Y-56447857D01*
X80773809Y-56352619D01*
X80726190Y-56305000D01*
X80630952Y-56257380D01*
X80392857Y-56257380D01*
X80250000Y-56305000D01*
X79821428Y-56733571D02*
X79488095Y-56733571D01*
X79345238Y-57257380D02*
X79821428Y-57257380D01*
X79821428Y-56257380D01*
X79345238Y-56257380D01*
X78916666Y-57257380D02*
X78916666Y-56257380D01*
X78345238Y-57257380D01*
X78345238Y-56257380D01*
X77916666Y-57209761D02*
X77773809Y-57257380D01*
X77535714Y-57257380D01*
X77440476Y-57209761D01*
X77392857Y-57162142D01*
X77345238Y-57066904D01*
X77345238Y-56971666D01*
X77392857Y-56876428D01*
X77440476Y-56828809D01*
X77535714Y-56781190D01*
X77726190Y-56733571D01*
X77821428Y-56685952D01*
X77869047Y-56638333D01*
X77916666Y-56543095D01*
X77916666Y-56447857D01*
X77869047Y-56352619D01*
X77821428Y-56305000D01*
X77726190Y-56257380D01*
X77488095Y-56257380D01*
X77345238Y-56305000D01*
X75821428Y-56733571D02*
X75678571Y-56781190D01*
X75630952Y-56828809D01*
X75583333Y-56924047D01*
X75583333Y-57066904D01*
X75630952Y-57162142D01*
X75678571Y-57209761D01*
X75773809Y-57257380D01*
X76154761Y-57257380D01*
X76154761Y-56257380D01*
X75821428Y-56257380D01*
X75726190Y-56305000D01*
X75678571Y-56352619D01*
X75630952Y-56447857D01*
X75630952Y-56543095D01*
X75678571Y-56638333D01*
X75726190Y-56685952D01*
X75821428Y-56733571D01*
X76154761Y-56733571D01*
X74964285Y-56257380D02*
X74773809Y-56257380D01*
X74678571Y-56305000D01*
X74583333Y-56400238D01*
X74535714Y-56590714D01*
X74535714Y-56924047D01*
X74583333Y-57114523D01*
X74678571Y-57209761D01*
X74773809Y-57257380D01*
X74964285Y-57257380D01*
X75059523Y-57209761D01*
X75154761Y-57114523D01*
X75202380Y-56924047D01*
X75202380Y-56590714D01*
X75154761Y-56400238D01*
X75059523Y-56305000D01*
X74964285Y-56257380D01*
X74154761Y-56971666D02*
X73678571Y-56971666D01*
X74250000Y-57257380D02*
X73916666Y-56257380D01*
X73583333Y-57257380D01*
X72678571Y-57257380D02*
X73011904Y-56781190D01*
X73250000Y-57257380D02*
X73250000Y-56257380D01*
X72869047Y-56257380D01*
X72773809Y-56305000D01*
X72726190Y-56352619D01*
X72678571Y-56447857D01*
X72678571Y-56590714D01*
X72726190Y-56685952D01*
X72773809Y-56733571D01*
X72869047Y-56781190D01*
X73250000Y-56781190D01*
X72250000Y-57257380D02*
X72250000Y-56257380D01*
X72011904Y-56257380D01*
X71869047Y-56305000D01*
X71773809Y-56400238D01*
X71726190Y-56495476D01*
X71678571Y-56685952D01*
X71678571Y-56828809D01*
X71726190Y-57019285D01*
X71773809Y-57114523D01*
X71869047Y-57209761D01*
X72011904Y-57257380D01*
X72250000Y-57257380D01*
X77059523Y-57867380D02*
X76726190Y-58867380D01*
X76392857Y-57867380D01*
X75535714Y-58867380D02*
X76107142Y-58867380D01*
X75821428Y-58867380D02*
X75821428Y-57867380D01*
X75916666Y-58010238D01*
X76011904Y-58105476D01*
X76107142Y-58153095D01*
M02*
