%TF.GenerationSoftware,KiCad,Pcbnew,(6.0.9)*%
%TF.CreationDate,2022-11-26T14:04:05+01:00*%
%TF.ProjectId,SEN_PCB,53454e5f-5043-4422-9e6b-696361645f70,rev?*%
%TF.SameCoordinates,Original*%
%TF.FileFunction,Copper,L2,Bot*%
%TF.FilePolarity,Positive*%
%FSLAX46Y46*%
G04 Gerber Fmt 4.6, Leading zero omitted, Abs format (unit mm)*
G04 Created by KiCad (PCBNEW (6.0.9)) date 2022-11-26 14:04:05*
%MOMM*%
%LPD*%
G01*
G04 APERTURE LIST*
%TA.AperFunction,ComponentPad*%
%ADD10R,2.250000X3.375000*%
%TD*%
%TA.AperFunction,ViaPad*%
%ADD11C,0.800000*%
%TD*%
%TA.AperFunction,Conductor*%
%ADD12C,0.250000*%
%TD*%
G04 APERTURE END LIST*
D10*
%TO.P,J1,MH1,MH1*%
%TO.N,unconnected-(J1-PadMH1)*%
X69880000Y-60020000D03*
%TO.P,J1,MH2,MH2*%
%TO.N,unconnected-(J1-PadMH2)*%
X82620000Y-60020000D03*
%TD*%
D11*
%TO.N,GND*%
X74701400Y-81432400D03*
X66598800Y-79019400D03*
X66624200Y-81432400D03*
X69138800Y-81432400D03*
X72500000Y-60000000D03*
X73202800Y-77089000D03*
X66497200Y-74676000D03*
X81508600Y-77038200D03*
X72500000Y-64750000D03*
X72085200Y-81432400D03*
X79984600Y-77063600D03*
X74168000Y-76123800D03*
X82880200Y-77038200D03*
%TO.N,/BME_SS*%
X72720200Y-72186800D03*
X78867000Y-72161400D03*
%TO.N,/MISO*%
X82575400Y-72948800D03*
X75006200Y-73670700D03*
%TO.N,/MOSI*%
X73710800Y-72923400D03*
X81330800Y-72923400D03*
%TO.N,/CLK*%
X83845400Y-76098400D03*
X76200000Y-74371200D03*
X71486400Y-74395200D03*
%TD*%
D12*
%TO.N,/BME_SS*%
X72745600Y-72161400D02*
X72720200Y-72186800D01*
X78867000Y-72161400D02*
X72745600Y-72161400D01*
%TO.N,/MISO*%
X82231889Y-73647911D02*
X82575400Y-73304400D01*
X75006200Y-73670700D02*
X75030211Y-73646689D01*
X82575400Y-73304400D02*
X82575400Y-72948800D01*
X81029475Y-73646689D02*
X81030697Y-73647911D01*
X81030697Y-73647911D02*
X82231889Y-73647911D01*
X75030211Y-73646689D02*
X81029475Y-73646689D01*
%TO.N,/MOSI*%
X73710800Y-72923400D02*
X81330800Y-72923400D01*
%TO.N,/CLK*%
X76200000Y-74371200D02*
X82118200Y-74371200D01*
X82118200Y-74371200D02*
X83845400Y-76098400D01*
X76200000Y-74371200D02*
X76176000Y-74395200D01*
X76176000Y-74395200D02*
X71486400Y-74395200D01*
%TD*%
%TA.AperFunction,Conductor*%
%TO.N,GND*%
G36*
X86981569Y-51176102D02*
G01*
X87028062Y-51229758D01*
X87039448Y-51282388D01*
X86968348Y-82398388D01*
X86948190Y-82466463D01*
X86894428Y-82512833D01*
X86842348Y-82524100D01*
X65611352Y-82524100D01*
X65543231Y-82504098D01*
X65496738Y-82450442D01*
X65485352Y-82397812D01*
X65503638Y-74395200D01*
X70572896Y-74395200D01*
X70592858Y-74585128D01*
X70651873Y-74766756D01*
X70747360Y-74932144D01*
X70751778Y-74937051D01*
X70751779Y-74937052D01*
X70857030Y-75053945D01*
X70875147Y-75074066D01*
X70974243Y-75146064D01*
X71000311Y-75165003D01*
X71029648Y-75186318D01*
X71035676Y-75189002D01*
X71035678Y-75189003D01*
X71153288Y-75241366D01*
X71204112Y-75263994D01*
X71271548Y-75278328D01*
X71384456Y-75302328D01*
X71384461Y-75302328D01*
X71390913Y-75303700D01*
X71581887Y-75303700D01*
X71588339Y-75302328D01*
X71588344Y-75302328D01*
X71701252Y-75278328D01*
X71768688Y-75263994D01*
X71819512Y-75241366D01*
X71937122Y-75189003D01*
X71937124Y-75189002D01*
X71943152Y-75186318D01*
X71972490Y-75165003D01*
X72076071Y-75089746D01*
X72097653Y-75074066D01*
X72102068Y-75069163D01*
X72106980Y-75064740D01*
X72108105Y-75065989D01*
X72161414Y-75033149D01*
X72194600Y-75028700D01*
X75518399Y-75028700D01*
X75586520Y-75048702D01*
X75592460Y-75052764D01*
X75730416Y-75152995D01*
X75743248Y-75162318D01*
X75749276Y-75165002D01*
X75749278Y-75165003D01*
X75911681Y-75237309D01*
X75917712Y-75239994D01*
X76011112Y-75259847D01*
X76098056Y-75278328D01*
X76098061Y-75278328D01*
X76104513Y-75279700D01*
X76295487Y-75279700D01*
X76301939Y-75278328D01*
X76301944Y-75278328D01*
X76388888Y-75259847D01*
X76482288Y-75239994D01*
X76488319Y-75237309D01*
X76650722Y-75165003D01*
X76650724Y-75165002D01*
X76656752Y-75162318D01*
X76772876Y-75077949D01*
X76805914Y-75053945D01*
X76811253Y-75050066D01*
X76815668Y-75045163D01*
X76820580Y-75040740D01*
X76821705Y-75041989D01*
X76875014Y-75009149D01*
X76908200Y-75004700D01*
X81803606Y-75004700D01*
X81871727Y-75024702D01*
X81892701Y-75041605D01*
X82898278Y-76047182D01*
X82932304Y-76109494D01*
X82934492Y-76123103D01*
X82951858Y-76288328D01*
X83010873Y-76469956D01*
X83106360Y-76635344D01*
X83234147Y-76777266D01*
X83388648Y-76889518D01*
X83394676Y-76892202D01*
X83394678Y-76892203D01*
X83557081Y-76964509D01*
X83563112Y-76967194D01*
X83656513Y-76987047D01*
X83743456Y-77005528D01*
X83743461Y-77005528D01*
X83749913Y-77006900D01*
X83940887Y-77006900D01*
X83947339Y-77005528D01*
X83947344Y-77005528D01*
X84034287Y-76987047D01*
X84127688Y-76967194D01*
X84133719Y-76964509D01*
X84296122Y-76892203D01*
X84296124Y-76892202D01*
X84302152Y-76889518D01*
X84456653Y-76777266D01*
X84584440Y-76635344D01*
X84679927Y-76469956D01*
X84738942Y-76288328D01*
X84758904Y-76098400D01*
X84738942Y-75908472D01*
X84679927Y-75726844D01*
X84584440Y-75561456D01*
X84456653Y-75419534D01*
X84302152Y-75307282D01*
X84296124Y-75304598D01*
X84296122Y-75304597D01*
X84133719Y-75232291D01*
X84133718Y-75232291D01*
X84127688Y-75229606D01*
X84034287Y-75209753D01*
X83947344Y-75191272D01*
X83947339Y-75191272D01*
X83940887Y-75189900D01*
X83884994Y-75189900D01*
X83816873Y-75169898D01*
X83795899Y-75152995D01*
X82798400Y-74155495D01*
X82764374Y-74093183D01*
X82769439Y-74022367D01*
X82798400Y-73977305D01*
X82967653Y-73808052D01*
X82975939Y-73800512D01*
X82982418Y-73796400D01*
X83029045Y-73746747D01*
X83031799Y-73743906D01*
X83038431Y-73737274D01*
X83053465Y-73724433D01*
X83181309Y-73631549D01*
X83181311Y-73631547D01*
X83186653Y-73627666D01*
X83314440Y-73485744D01*
X83409927Y-73320356D01*
X83468942Y-73138728D01*
X83473507Y-73095300D01*
X83488214Y-72955365D01*
X83488904Y-72948800D01*
X83488214Y-72942235D01*
X83469632Y-72765435D01*
X83469632Y-72765433D01*
X83468942Y-72758872D01*
X83409927Y-72577244D01*
X83314440Y-72411856D01*
X83288464Y-72383006D01*
X83191075Y-72274845D01*
X83191074Y-72274844D01*
X83186653Y-72269934D01*
X83072229Y-72186800D01*
X83037494Y-72161563D01*
X83037493Y-72161562D01*
X83032152Y-72157682D01*
X83026124Y-72154998D01*
X83026122Y-72154997D01*
X82863719Y-72082691D01*
X82863718Y-72082691D01*
X82857688Y-72080006D01*
X82750823Y-72057291D01*
X82677344Y-72041672D01*
X82677339Y-72041672D01*
X82670887Y-72040300D01*
X82479913Y-72040300D01*
X82473461Y-72041672D01*
X82473456Y-72041672D01*
X82399977Y-72057291D01*
X82293112Y-72080006D01*
X82287082Y-72082691D01*
X82287081Y-72082691D01*
X82124678Y-72154997D01*
X82124676Y-72154998D01*
X82118648Y-72157682D01*
X82113307Y-72161562D01*
X82113306Y-72161563D01*
X82044641Y-72211451D01*
X81977773Y-72235310D01*
X81908621Y-72219229D01*
X81896519Y-72211451D01*
X81792894Y-72136163D01*
X81792893Y-72136162D01*
X81787552Y-72132282D01*
X81781524Y-72129598D01*
X81781522Y-72129597D01*
X81619119Y-72057291D01*
X81619118Y-72057291D01*
X81613088Y-72054606D01*
X81519688Y-72034753D01*
X81432744Y-72016272D01*
X81432739Y-72016272D01*
X81426287Y-72014900D01*
X81235313Y-72014900D01*
X81228861Y-72016272D01*
X81228856Y-72016272D01*
X81141912Y-72034753D01*
X81048512Y-72054606D01*
X81042482Y-72057291D01*
X81042481Y-72057291D01*
X80880078Y-72129597D01*
X80880076Y-72129598D01*
X80874048Y-72132282D01*
X80868707Y-72136162D01*
X80868706Y-72136163D01*
X80799011Y-72186800D01*
X80719547Y-72244534D01*
X80715132Y-72249437D01*
X80710220Y-72253860D01*
X80709095Y-72252611D01*
X80655786Y-72285451D01*
X80622600Y-72289900D01*
X79905814Y-72289900D01*
X79837693Y-72269898D01*
X79791200Y-72216242D01*
X79780102Y-72165224D01*
X79780504Y-72161400D01*
X79777161Y-72129597D01*
X79761232Y-71978035D01*
X79761232Y-71978033D01*
X79760542Y-71971472D01*
X79701527Y-71789844D01*
X79606040Y-71624456D01*
X79497434Y-71503836D01*
X79482675Y-71487445D01*
X79482674Y-71487444D01*
X79478253Y-71482534D01*
X79358712Y-71395682D01*
X79329094Y-71374163D01*
X79329093Y-71374162D01*
X79323752Y-71370282D01*
X79317724Y-71367598D01*
X79317722Y-71367597D01*
X79155319Y-71295291D01*
X79155318Y-71295291D01*
X79149288Y-71292606D01*
X79055888Y-71272753D01*
X78968944Y-71254272D01*
X78968939Y-71254272D01*
X78962487Y-71252900D01*
X78771513Y-71252900D01*
X78765061Y-71254272D01*
X78765056Y-71254272D01*
X78678112Y-71272753D01*
X78584712Y-71292606D01*
X78578682Y-71295291D01*
X78578681Y-71295291D01*
X78416278Y-71367597D01*
X78416276Y-71367598D01*
X78410248Y-71370282D01*
X78404907Y-71374162D01*
X78404906Y-71374163D01*
X78375288Y-71395682D01*
X78255747Y-71482534D01*
X78251332Y-71487437D01*
X78246420Y-71491860D01*
X78245295Y-71490611D01*
X78191986Y-71523451D01*
X78158800Y-71527900D01*
X73399874Y-71527900D01*
X73331753Y-71507898D01*
X73325813Y-71503836D01*
X73182294Y-71399563D01*
X73182293Y-71399562D01*
X73176952Y-71395682D01*
X73170924Y-71392998D01*
X73170922Y-71392997D01*
X73008519Y-71320691D01*
X73008518Y-71320691D01*
X73002488Y-71318006D01*
X72895623Y-71295291D01*
X72822144Y-71279672D01*
X72822139Y-71279672D01*
X72815687Y-71278300D01*
X72624713Y-71278300D01*
X72618261Y-71279672D01*
X72618256Y-71279672D01*
X72544777Y-71295291D01*
X72437912Y-71318006D01*
X72431882Y-71320691D01*
X72431881Y-71320691D01*
X72269478Y-71392997D01*
X72269476Y-71392998D01*
X72263448Y-71395682D01*
X72108947Y-71507934D01*
X72104526Y-71512844D01*
X72104525Y-71512845D01*
X72090970Y-71527900D01*
X71981160Y-71649856D01*
X71885673Y-71815244D01*
X71826658Y-71996872D01*
X71825968Y-72003433D01*
X71825968Y-72003435D01*
X71817920Y-72080006D01*
X71806696Y-72186800D01*
X71807386Y-72193365D01*
X71817065Y-72285451D01*
X71826658Y-72376728D01*
X71885673Y-72558356D01*
X71981160Y-72723744D01*
X71985578Y-72728651D01*
X71985579Y-72728652D01*
X72012789Y-72758872D01*
X72108947Y-72865666D01*
X72208043Y-72937664D01*
X72232407Y-72955365D01*
X72263448Y-72977918D01*
X72269476Y-72980602D01*
X72269478Y-72980603D01*
X72431881Y-73052909D01*
X72437912Y-73055594D01*
X72531312Y-73075447D01*
X72618256Y-73093928D01*
X72618261Y-73093928D01*
X72624713Y-73095300D01*
X72719856Y-73095300D01*
X72787977Y-73115302D01*
X72834470Y-73168958D01*
X72839689Y-73182363D01*
X72876273Y-73294956D01*
X72971760Y-73460344D01*
X72976178Y-73465251D01*
X72976179Y-73465252D01*
X73053738Y-73551390D01*
X73084456Y-73615397D01*
X73075691Y-73685851D01*
X73030228Y-73740382D01*
X72960102Y-73761700D01*
X72194600Y-73761700D01*
X72126479Y-73741698D01*
X72107253Y-73725357D01*
X72106980Y-73725660D01*
X72102068Y-73721237D01*
X72097653Y-73716334D01*
X71980957Y-73631549D01*
X71948494Y-73607963D01*
X71948493Y-73607962D01*
X71943152Y-73604082D01*
X71937124Y-73601398D01*
X71937122Y-73601397D01*
X71774719Y-73529091D01*
X71774718Y-73529091D01*
X71768688Y-73526406D01*
X71675288Y-73506553D01*
X71588344Y-73488072D01*
X71588339Y-73488072D01*
X71581887Y-73486700D01*
X71390913Y-73486700D01*
X71384461Y-73488072D01*
X71384456Y-73488072D01*
X71297512Y-73506553D01*
X71204112Y-73526406D01*
X71198082Y-73529091D01*
X71198081Y-73529091D01*
X71035678Y-73601397D01*
X71035676Y-73601398D01*
X71029648Y-73604082D01*
X71024307Y-73607962D01*
X71024306Y-73607963D01*
X70991843Y-73631549D01*
X70875147Y-73716334D01*
X70870726Y-73721244D01*
X70870725Y-73721245D01*
X70856293Y-73737274D01*
X70747360Y-73858256D01*
X70651873Y-74023644D01*
X70592858Y-74205272D01*
X70572896Y-74395200D01*
X65503638Y-74395200D01*
X65517377Y-68382503D01*
X66390743Y-68382503D01*
X66428268Y-68667534D01*
X66504129Y-68944836D01*
X66616923Y-69209276D01*
X66764561Y-69455961D01*
X66944313Y-69680328D01*
X67152851Y-69878223D01*
X67386317Y-70045986D01*
X67390112Y-70047995D01*
X67390113Y-70047996D01*
X67411869Y-70059515D01*
X67640392Y-70180512D01*
X67910373Y-70279311D01*
X68191264Y-70340555D01*
X68219841Y-70342804D01*
X68414282Y-70358107D01*
X68414291Y-70358107D01*
X68416739Y-70358300D01*
X68572271Y-70358300D01*
X68574407Y-70358154D01*
X68574418Y-70358154D01*
X68782548Y-70343965D01*
X68782554Y-70343964D01*
X68786825Y-70343673D01*
X68791020Y-70342804D01*
X68791022Y-70342804D01*
X68927584Y-70314523D01*
X69068342Y-70285374D01*
X69339343Y-70189407D01*
X69594812Y-70057550D01*
X69598313Y-70055089D01*
X69598317Y-70055087D01*
X69712417Y-69974896D01*
X69830023Y-69892241D01*
X70040622Y-69696540D01*
X70222713Y-69474068D01*
X70372927Y-69228942D01*
X70488483Y-68965698D01*
X70567244Y-68689206D01*
X70607751Y-68404584D01*
X70607845Y-68386751D01*
X70607867Y-68382503D01*
X81890743Y-68382503D01*
X81928268Y-68667534D01*
X82004129Y-68944836D01*
X82116923Y-69209276D01*
X82264561Y-69455961D01*
X82444313Y-69680328D01*
X82652851Y-69878223D01*
X82886317Y-70045986D01*
X82890112Y-70047995D01*
X82890113Y-70047996D01*
X82911869Y-70059515D01*
X83140392Y-70180512D01*
X83410373Y-70279311D01*
X83691264Y-70340555D01*
X83719841Y-70342804D01*
X83914282Y-70358107D01*
X83914291Y-70358107D01*
X83916739Y-70358300D01*
X84072271Y-70358300D01*
X84074407Y-70358154D01*
X84074418Y-70358154D01*
X84282548Y-70343965D01*
X84282554Y-70343964D01*
X84286825Y-70343673D01*
X84291020Y-70342804D01*
X84291022Y-70342804D01*
X84427584Y-70314523D01*
X84568342Y-70285374D01*
X84839343Y-70189407D01*
X85094812Y-70057550D01*
X85098313Y-70055089D01*
X85098317Y-70055087D01*
X85212417Y-69974896D01*
X85330023Y-69892241D01*
X85540622Y-69696540D01*
X85722713Y-69474068D01*
X85872927Y-69228942D01*
X85988483Y-68965698D01*
X86067244Y-68689206D01*
X86107751Y-68404584D01*
X86107845Y-68386751D01*
X86109235Y-68121383D01*
X86109235Y-68121376D01*
X86109257Y-68117097D01*
X86071732Y-67832066D01*
X85995871Y-67554764D01*
X85883077Y-67290324D01*
X85735439Y-67043639D01*
X85555687Y-66819272D01*
X85347149Y-66621377D01*
X85113683Y-66453614D01*
X85091843Y-66442050D01*
X85068654Y-66429772D01*
X84859608Y-66319088D01*
X84589627Y-66220289D01*
X84308736Y-66159045D01*
X84277685Y-66156601D01*
X84085718Y-66141493D01*
X84085709Y-66141493D01*
X84083261Y-66141300D01*
X83927729Y-66141300D01*
X83925593Y-66141446D01*
X83925582Y-66141446D01*
X83717452Y-66155635D01*
X83717446Y-66155636D01*
X83713175Y-66155927D01*
X83708980Y-66156796D01*
X83708978Y-66156796D01*
X83572416Y-66185077D01*
X83431658Y-66214226D01*
X83160657Y-66310193D01*
X82905188Y-66442050D01*
X82901687Y-66444511D01*
X82901683Y-66444513D01*
X82891594Y-66451604D01*
X82669977Y-66607359D01*
X82459378Y-66803060D01*
X82277287Y-67025532D01*
X82127073Y-67270658D01*
X82011517Y-67533902D01*
X81932756Y-67810394D01*
X81892249Y-68095016D01*
X81892227Y-68099305D01*
X81892226Y-68099312D01*
X81890765Y-68378217D01*
X81890743Y-68382503D01*
X70607867Y-68382503D01*
X70609235Y-68121383D01*
X70609235Y-68121376D01*
X70609257Y-68117097D01*
X70571732Y-67832066D01*
X70495871Y-67554764D01*
X70383077Y-67290324D01*
X70235439Y-67043639D01*
X70055687Y-66819272D01*
X69847149Y-66621377D01*
X69613683Y-66453614D01*
X69591843Y-66442050D01*
X69568654Y-66429772D01*
X69359608Y-66319088D01*
X69089627Y-66220289D01*
X68808736Y-66159045D01*
X68777685Y-66156601D01*
X68585718Y-66141493D01*
X68585709Y-66141493D01*
X68583261Y-66141300D01*
X68427729Y-66141300D01*
X68425593Y-66141446D01*
X68425582Y-66141446D01*
X68217452Y-66155635D01*
X68217446Y-66155636D01*
X68213175Y-66155927D01*
X68208980Y-66156796D01*
X68208978Y-66156796D01*
X68072416Y-66185077D01*
X67931658Y-66214226D01*
X67660657Y-66310193D01*
X67405188Y-66442050D01*
X67401687Y-66444511D01*
X67401683Y-66444513D01*
X67391594Y-66451604D01*
X67169977Y-66607359D01*
X66959378Y-66803060D01*
X66777287Y-67025532D01*
X66627073Y-67270658D01*
X66511517Y-67533902D01*
X66432756Y-67810394D01*
X66392249Y-68095016D01*
X66392227Y-68099305D01*
X66392226Y-68099312D01*
X66390765Y-68378217D01*
X66390743Y-68382503D01*
X65517377Y-68382503D01*
X65532519Y-61755634D01*
X68246500Y-61755634D01*
X68253255Y-61817816D01*
X68304385Y-61954205D01*
X68391739Y-62070761D01*
X68508295Y-62158115D01*
X68644684Y-62209245D01*
X68706866Y-62216000D01*
X71053134Y-62216000D01*
X71115316Y-62209245D01*
X71251705Y-62158115D01*
X71368261Y-62070761D01*
X71455615Y-61954205D01*
X71506745Y-61817816D01*
X71513500Y-61755634D01*
X80986500Y-61755634D01*
X80993255Y-61817816D01*
X81044385Y-61954205D01*
X81131739Y-62070761D01*
X81248295Y-62158115D01*
X81384684Y-62209245D01*
X81446866Y-62216000D01*
X83793134Y-62216000D01*
X83855316Y-62209245D01*
X83991705Y-62158115D01*
X84108261Y-62070761D01*
X84195615Y-61954205D01*
X84246745Y-61817816D01*
X84253500Y-61755634D01*
X84253500Y-58284366D01*
X84246745Y-58222184D01*
X84195615Y-58085795D01*
X84108261Y-57969239D01*
X83991705Y-57881885D01*
X83855316Y-57830755D01*
X83793134Y-57824000D01*
X81446866Y-57824000D01*
X81384684Y-57830755D01*
X81248295Y-57881885D01*
X81131739Y-57969239D01*
X81044385Y-58085795D01*
X80993255Y-58222184D01*
X80986500Y-58284366D01*
X80986500Y-61755634D01*
X71513500Y-61755634D01*
X71513500Y-58284366D01*
X71506745Y-58222184D01*
X71455615Y-58085795D01*
X71368261Y-57969239D01*
X71251705Y-57881885D01*
X71115316Y-57830755D01*
X71053134Y-57824000D01*
X68706866Y-57824000D01*
X68644684Y-57830755D01*
X68508295Y-57881885D01*
X68391739Y-57969239D01*
X68304385Y-58085795D01*
X68253255Y-58222184D01*
X68246500Y-58284366D01*
X68246500Y-61755634D01*
X65532519Y-61755634D01*
X65556452Y-51281812D01*
X65576610Y-51213737D01*
X65630372Y-51167367D01*
X65682452Y-51156100D01*
X86913448Y-51156100D01*
X86981569Y-51176102D01*
G37*
%TD.AperFunction*%
%TD*%
M02*
