%TF.GenerationSoftware,KiCad,Pcbnew,(6.0.9)*%
%TF.CreationDate,2022-11-26T14:04:05+01:00*%
%TF.ProjectId,SEN_PCB,53454e5f-5043-4422-9e6b-696361645f70,rev?*%
%TF.SameCoordinates,Original*%
%TF.FileFunction,Copper,L1,Top*%
%TF.FilePolarity,Positive*%
%FSLAX46Y46*%
G04 Gerber Fmt 4.6, Leading zero omitted, Abs format (unit mm)*
G04 Created by KiCad (PCBNEW (6.0.9)) date 2022-11-26 14:04:05*
%MOMM*%
%LPD*%
G01*
G04 APERTURE LIST*
G04 Aperture macros list*
%AMRoundRect*
0 Rectangle with rounded corners*
0 $1 Rounding radius*
0 $2 $3 $4 $5 $6 $7 $8 $9 X,Y pos of 4 corners*
0 Add a 4 corners polygon primitive as box body*
4,1,4,$2,$3,$4,$5,$6,$7,$8,$9,$2,$3,0*
0 Add four circle primitives for the rounded corners*
1,1,$1+$1,$2,$3*
1,1,$1+$1,$4,$5*
1,1,$1+$1,$6,$7*
1,1,$1+$1,$8,$9*
0 Add four rect primitives between the rounded corners*
20,1,$1+$1,$2,$3,$4,$5,0*
20,1,$1+$1,$4,$5,$6,$7,0*
20,1,$1+$1,$6,$7,$8,$9,0*
20,1,$1+$1,$8,$9,$2,$3,0*%
G04 Aperture macros list end*
%TA.AperFunction,SMDPad,CuDef*%
%ADD10R,0.900000X2.000000*%
%TD*%
%TA.AperFunction,ComponentPad*%
%ADD11R,2.250000X3.375000*%
%TD*%
%TA.AperFunction,SMDPad,CuDef*%
%ADD12RoundRect,0.150000X-0.150000X0.825000X-0.150000X-0.825000X0.150000X-0.825000X0.150000X0.825000X0*%
%TD*%
%TA.AperFunction,SMDPad,CuDef*%
%ADD13RoundRect,0.250000X0.250000X0.475000X-0.250000X0.475000X-0.250000X-0.475000X0.250000X-0.475000X0*%
%TD*%
%TA.AperFunction,SMDPad,CuDef*%
%ADD14RoundRect,0.140000X0.170000X-0.140000X0.170000X0.140000X-0.170000X0.140000X-0.170000X-0.140000X0*%
%TD*%
%TA.AperFunction,SMDPad,CuDef*%
%ADD15RoundRect,0.140000X0.140000X0.170000X-0.140000X0.170000X-0.140000X-0.170000X0.140000X-0.170000X0*%
%TD*%
%TA.AperFunction,SMDPad,CuDef*%
%ADD16RoundRect,0.125000X-0.125000X-0.137500X0.125000X-0.137500X0.125000X0.137500X-0.125000X0.137500X0*%
%TD*%
%TA.AperFunction,ViaPad*%
%ADD17C,0.800000*%
%TD*%
%TA.AperFunction,Conductor*%
%ADD18C,0.500000*%
%TD*%
%TA.AperFunction,Conductor*%
%ADD19C,0.250000*%
%TD*%
G04 APERTURE END LIST*
D10*
%TO.P,J1,1,1*%
%TO.N,GND*%
X72440000Y-62380000D03*
%TO.P,J1,2,2*%
%TO.N,/MOSI*%
X73710000Y-62380000D03*
%TO.P,J1,3,3*%
%TO.N,/MISO*%
X74980000Y-62380000D03*
%TO.P,J1,4,4*%
%TO.N,/CLK*%
X76250000Y-62380000D03*
%TO.P,J1,5,5*%
%TO.N,+3.3V*%
X77520000Y-62380000D03*
%TO.P,J1,6,6*%
%TO.N,/BME_SS*%
X78790000Y-62380000D03*
%TO.P,J1,7,7*%
%TO.N,/TEMP_SS*%
X80060000Y-62380000D03*
D11*
%TO.P,J1,MH1,MH1*%
%TO.N,unconnected-(J1-PadMH1)*%
X69880000Y-60020000D03*
%TO.P,J1,MH2,MH2*%
%TO.N,unconnected-(J1-PadMH2)*%
X82620000Y-60020000D03*
%TD*%
D12*
%TO.P,U2,1,SCLK*%
%TO.N,/CLK*%
X83870800Y-74563200D03*
%TO.P,U2,2,DOUT*%
%TO.N,/MISO*%
X82600800Y-74563200D03*
%TO.P,U2,3,DIN*%
%TO.N,/MOSI*%
X81330800Y-74563200D03*
%TO.P,U2,4,CS*%
%TO.N,/TEMP_SS*%
X80060800Y-74563200D03*
%TO.P,U2,5,INT*%
%TO.N,unconnected-(U2-Pad5)*%
X80060800Y-79513200D03*
%TO.P,U2,6,CT*%
%TO.N,unconnected-(U2-Pad6)*%
X81330800Y-79513200D03*
%TO.P,U2,7,GND*%
%TO.N,GND*%
X82600800Y-79513200D03*
%TO.P,U2,8,VDD*%
%TO.N,+3.3V*%
X83870800Y-79513200D03*
%TD*%
D13*
%TO.P,C3,1*%
%TO.N,+3.3V*%
X77480200Y-76581000D03*
%TO.P,C3,2*%
%TO.N,GND*%
X75580200Y-76581000D03*
%TD*%
D14*
%TO.P,C1,1*%
%TO.N,+3.3V*%
X66486400Y-76875200D03*
%TO.P,C1,2*%
%TO.N,GND*%
X66486400Y-75915200D03*
%TD*%
D15*
%TO.P,C2,1*%
%TO.N,+3.3V*%
X83868200Y-81407000D03*
%TO.P,C2,2*%
%TO.N,GND*%
X82908200Y-81407000D03*
%TD*%
D16*
%TO.P,U1,1,GND*%
%TO.N,GND*%
X67786400Y-74707700D03*
%TO.P,U1,2,CSB*%
%TO.N,/BME_SS*%
X68586400Y-74707700D03*
%TO.P,U1,3,SDI*%
%TO.N,/MOSI*%
X69386400Y-74707700D03*
%TO.P,U1,4,SCK*%
%TO.N,/CLK*%
X70186400Y-74707700D03*
%TO.P,U1,5,SDO*%
%TO.N,/MISO*%
X70186400Y-77082700D03*
%TO.P,U1,6,VDDIO*%
%TO.N,+3.3V*%
X69386400Y-77082700D03*
%TO.P,U1,7,GND*%
%TO.N,GND*%
X68586400Y-77082700D03*
%TO.P,U1,8,VDD*%
%TO.N,+3.3V*%
X67786400Y-77082700D03*
%TD*%
D17*
%TO.N,GND*%
X74701400Y-81432400D03*
X66598800Y-79019400D03*
X66624200Y-81432400D03*
X69138800Y-81432400D03*
X72500000Y-60000000D03*
X73202800Y-77089000D03*
X66497200Y-74676000D03*
X81508600Y-77038200D03*
X72500000Y-64750000D03*
X72085200Y-81432400D03*
X79984600Y-77063600D03*
X74168000Y-76123800D03*
X82880200Y-77038200D03*
%TO.N,/BME_SS*%
X72720200Y-72186800D03*
X78867000Y-72161400D03*
%TO.N,/MISO*%
X82575400Y-72948800D03*
X75006200Y-73670700D03*
%TO.N,/MOSI*%
X73710800Y-72923400D03*
X81330800Y-72923400D03*
%TO.N,/CLK*%
X83845400Y-76098400D03*
X76200000Y-74371200D03*
X71486400Y-74395200D03*
%TD*%
D18*
%TO.N,+3.3V*%
X69386400Y-78295200D02*
X77353800Y-78295200D01*
X83870800Y-79513200D02*
X83870800Y-81949307D01*
X67786400Y-77695200D02*
X68386400Y-78295200D01*
X66486400Y-76875200D02*
X67578900Y-76875200D01*
X69386400Y-77082700D02*
X69386400Y-78295200D01*
X68386400Y-78295200D02*
X69386400Y-78295200D01*
X67578900Y-76875200D02*
X67786400Y-77082700D01*
X83547787Y-82272320D02*
X79402120Y-82272320D01*
X67786400Y-77082700D02*
X67786400Y-77695200D01*
X77353800Y-78295200D02*
X77520000Y-78461400D01*
X77520000Y-62380000D02*
X77520000Y-78461400D01*
X77520000Y-80390200D02*
X77520000Y-78461400D01*
X83870800Y-81949307D02*
X83547787Y-82272320D01*
X79402120Y-82272320D02*
X77520000Y-80390200D01*
D19*
%TO.N,GND*%
X67786400Y-75445200D02*
X68586400Y-76245200D01*
X67786400Y-74707700D02*
X67786400Y-75445200D01*
X82600800Y-81099600D02*
X82908200Y-81407000D01*
X68586400Y-76245200D02*
X68586400Y-77082700D01*
X82600800Y-79513200D02*
X82600800Y-81099600D01*
%TO.N,/BME_SS*%
X78867000Y-72161400D02*
X78790000Y-72084400D01*
X68586400Y-73769895D02*
X68586400Y-74707700D01*
X78790000Y-72084400D02*
X78790000Y-62380000D01*
X69646800Y-72186800D02*
X68580000Y-73253600D01*
X68580000Y-73253600D02*
X68580000Y-73761600D01*
X72720200Y-72186800D02*
X69646800Y-72186800D01*
%TO.N,/MISO*%
X71594200Y-77082700D02*
X70186400Y-77082700D01*
X82575400Y-74537800D02*
X82600800Y-74563200D01*
X74980000Y-73644500D02*
X74980000Y-62380000D01*
X82575400Y-72948800D02*
X82575400Y-74537800D01*
X75006200Y-73670700D02*
X74980000Y-73644500D01*
X75006200Y-73670700D02*
X71594200Y-77082700D01*
%TO.N,/MOSI*%
X81330800Y-72923400D02*
X81330800Y-74563200D01*
X70425586Y-72923400D02*
X69486400Y-73862586D01*
X69486400Y-73862586D02*
X69486400Y-74607700D01*
X69486400Y-74607700D02*
X69386400Y-74707700D01*
X73710800Y-72923400D02*
X70425586Y-72923400D01*
X73710000Y-72922600D02*
X73710000Y-62380000D01*
X73710800Y-72923400D02*
X73710000Y-72922600D01*
%TO.N,/CLK*%
X71173900Y-74707700D02*
X71486400Y-74395200D01*
X83845400Y-76098400D02*
X83845400Y-74588600D01*
X76250000Y-62630000D02*
X76500000Y-62380000D01*
X83845400Y-74588600D02*
X83870800Y-74563200D01*
X70186400Y-74707700D02*
X71173900Y-74707700D01*
X76250000Y-74321200D02*
X76250000Y-62380000D01*
%TO.N,/TEMP_SS*%
X80060000Y-62380000D02*
X80060000Y-74359200D01*
%TD*%
%TA.AperFunction,Conductor*%
%TO.N,GND*%
G36*
X65705585Y-77268930D02*
G01*
X65731308Y-77299826D01*
X65799912Y-77415829D01*
X65915771Y-77531688D01*
X65922592Y-77535722D01*
X65998134Y-77580397D01*
X66056803Y-77615094D01*
X66064414Y-77617305D01*
X66064416Y-77617306D01*
X66115395Y-77632116D01*
X66214146Y-77660806D01*
X66220551Y-77661310D01*
X66220556Y-77661311D01*
X66248460Y-77663507D01*
X66248468Y-77663507D01*
X66250916Y-77663700D01*
X66721884Y-77663700D01*
X66724332Y-77663507D01*
X66724340Y-77663507D01*
X66752244Y-77661311D01*
X66752249Y-77661310D01*
X66758654Y-77660806D01*
X66764826Y-77659013D01*
X66764831Y-77659012D01*
X66834733Y-77638703D01*
X66869886Y-77633700D01*
X66903403Y-77633700D01*
X66971524Y-77653702D01*
X67018017Y-77707358D01*
X67028554Y-77745106D01*
X67031193Y-77767737D01*
X67031622Y-77772082D01*
X67037540Y-77844837D01*
X67039796Y-77851801D01*
X67040987Y-77857760D01*
X67042371Y-77863615D01*
X67043218Y-77870881D01*
X67068135Y-77939527D01*
X67069552Y-77943655D01*
X67092049Y-78013099D01*
X67095845Y-78019354D01*
X67098351Y-78024828D01*
X67101070Y-78030258D01*
X67103567Y-78037137D01*
X67107580Y-78043257D01*
X67107580Y-78043258D01*
X67143586Y-78098176D01*
X67145923Y-78101880D01*
X67183805Y-78164307D01*
X67187521Y-78168515D01*
X67187522Y-78168516D01*
X67191203Y-78172684D01*
X67191176Y-78172708D01*
X67193829Y-78175700D01*
X67196532Y-78178933D01*
X67200544Y-78185052D01*
X67205856Y-78190084D01*
X67256783Y-78238328D01*
X67259225Y-78240706D01*
X67802630Y-78784111D01*
X67815016Y-78798523D01*
X67823549Y-78810118D01*
X67823554Y-78810123D01*
X67827892Y-78816018D01*
X67833470Y-78820757D01*
X67833473Y-78820760D01*
X67868168Y-78850235D01*
X67875684Y-78857165D01*
X67881379Y-78862860D01*
X67884261Y-78865140D01*
X67903651Y-78880481D01*
X67907055Y-78883272D01*
X67957103Y-78925791D01*
X67962685Y-78930533D01*
X67969201Y-78933861D01*
X67974250Y-78937228D01*
X67979379Y-78940395D01*
X67985116Y-78944934D01*
X68051275Y-78975855D01*
X68055169Y-78977758D01*
X68120208Y-79010969D01*
X68127316Y-79012708D01*
X68132959Y-79014807D01*
X68138722Y-79016724D01*
X68145350Y-79019822D01*
X68152512Y-79021312D01*
X68152513Y-79021312D01*
X68216812Y-79034686D01*
X68221096Y-79035656D01*
X68292010Y-79053008D01*
X68297612Y-79053356D01*
X68297615Y-79053356D01*
X68303164Y-79053700D01*
X68303162Y-79053736D01*
X68307155Y-79053975D01*
X68311347Y-79054349D01*
X68318515Y-79055840D01*
X68387456Y-79053975D01*
X68395921Y-79053746D01*
X68399328Y-79053700D01*
X69358565Y-79053700D01*
X69366366Y-79053942D01*
X69427698Y-79057747D01*
X69440660Y-79055520D01*
X69461996Y-79053700D01*
X76635500Y-79053700D01*
X76703621Y-79073702D01*
X76750114Y-79127358D01*
X76761500Y-79179700D01*
X76761500Y-80323130D01*
X76760067Y-80342080D01*
X76756801Y-80363549D01*
X76757394Y-80370841D01*
X76757394Y-80370844D01*
X76761085Y-80416218D01*
X76761500Y-80426433D01*
X76761500Y-80434493D01*
X76761925Y-80438137D01*
X76764789Y-80462707D01*
X76765222Y-80467082D01*
X76771140Y-80539837D01*
X76773396Y-80546801D01*
X76774587Y-80552760D01*
X76775971Y-80558615D01*
X76776818Y-80565881D01*
X76801735Y-80634527D01*
X76803152Y-80638655D01*
X76825649Y-80708099D01*
X76829445Y-80714354D01*
X76831951Y-80719828D01*
X76834670Y-80725258D01*
X76837167Y-80732137D01*
X76841180Y-80738257D01*
X76841180Y-80738258D01*
X76877186Y-80793176D01*
X76879523Y-80796880D01*
X76917405Y-80859307D01*
X76921121Y-80863515D01*
X76921122Y-80863516D01*
X76924803Y-80867684D01*
X76924776Y-80867708D01*
X76927429Y-80870700D01*
X76930132Y-80873933D01*
X76934144Y-80880052D01*
X76990383Y-80933328D01*
X76992825Y-80935706D01*
X78366124Y-82309005D01*
X78400150Y-82371317D01*
X78395085Y-82442132D01*
X78352538Y-82498968D01*
X78286018Y-82523779D01*
X78277029Y-82524100D01*
X65611352Y-82524100D01*
X65543231Y-82504098D01*
X65496738Y-82450442D01*
X65485352Y-82397812D01*
X65496855Y-77363678D01*
X65517013Y-77295603D01*
X65570775Y-77249233D01*
X65641072Y-77239290D01*
X65705585Y-77268930D01*
G37*
%TD.AperFunction*%
%TA.AperFunction,Conductor*%
G36*
X86981569Y-51176102D02*
G01*
X87028062Y-51229758D01*
X87039448Y-51282388D01*
X86968348Y-82398388D01*
X86948190Y-82466463D01*
X86894428Y-82512833D01*
X86842348Y-82524100D01*
X84637411Y-82524100D01*
X84569290Y-82504098D01*
X84522797Y-82450442D01*
X84512693Y-82380168D01*
X84523261Y-82344755D01*
X84551444Y-82284455D01*
X84553361Y-82280532D01*
X84586569Y-82215499D01*
X84588308Y-82208391D01*
X84590407Y-82202748D01*
X84592324Y-82196985D01*
X84595422Y-82190357D01*
X84610287Y-82118890D01*
X84611257Y-82114606D01*
X84627273Y-82049152D01*
X84628608Y-82043697D01*
X84629300Y-82032543D01*
X84629336Y-82032545D01*
X84629575Y-82028552D01*
X84629949Y-82024360D01*
X84631440Y-82017192D01*
X84629346Y-81939786D01*
X84629300Y-81936379D01*
X84629300Y-81781537D01*
X84634303Y-81746384D01*
X84652011Y-81685431D01*
X84653806Y-81679254D01*
X84656700Y-81642484D01*
X84656700Y-81171516D01*
X84653806Y-81134746D01*
X84634303Y-81067615D01*
X84629300Y-81032463D01*
X84629300Y-80621954D01*
X84634303Y-80586802D01*
X84674567Y-80448211D01*
X84674568Y-80448207D01*
X84676362Y-80442031D01*
X84676956Y-80434493D01*
X84679107Y-80407158D01*
X84679107Y-80407150D01*
X84679300Y-80404702D01*
X84679300Y-78621698D01*
X84676362Y-78584369D01*
X84629945Y-78424599D01*
X84612907Y-78395789D01*
X84549291Y-78288220D01*
X84549289Y-78288217D01*
X84545253Y-78281393D01*
X84427607Y-78163747D01*
X84420783Y-78159711D01*
X84420780Y-78159709D01*
X84291227Y-78083092D01*
X84291228Y-78083092D01*
X84284401Y-78079055D01*
X84276790Y-78076844D01*
X84276788Y-78076843D01*
X84188942Y-78051322D01*
X84124631Y-78032638D01*
X84118226Y-78032134D01*
X84118221Y-78032133D01*
X84089758Y-78029893D01*
X84089750Y-78029893D01*
X84087302Y-78029700D01*
X83654298Y-78029700D01*
X83651850Y-78029893D01*
X83651842Y-78029893D01*
X83623379Y-78032133D01*
X83623374Y-78032134D01*
X83616969Y-78032638D01*
X83552658Y-78051322D01*
X83464812Y-78076843D01*
X83464810Y-78076844D01*
X83457199Y-78079055D01*
X83313993Y-78163747D01*
X83311053Y-78166687D01*
X83246529Y-78192021D01*
X83176906Y-78178120D01*
X83158160Y-78166071D01*
X83150477Y-78160111D01*
X83021021Y-78083552D01*
X83006590Y-78077307D01*
X82872195Y-78038261D01*
X82858094Y-78038301D01*
X82854800Y-78045570D01*
X82854800Y-79641200D01*
X82834798Y-79709321D01*
X82781142Y-79755814D01*
X82728800Y-79767200D01*
X82472800Y-79767200D01*
X82404679Y-79747198D01*
X82358186Y-79693542D01*
X82346800Y-79641200D01*
X82346800Y-78051322D01*
X82342827Y-78037791D01*
X82334929Y-78036656D01*
X82195010Y-78077307D01*
X82180579Y-78083552D01*
X82051124Y-78160110D01*
X82043436Y-78166074D01*
X81977351Y-78192021D01*
X81907728Y-78178120D01*
X81891642Y-78167782D01*
X81887607Y-78163747D01*
X81744401Y-78079055D01*
X81736790Y-78076844D01*
X81736788Y-78076843D01*
X81648942Y-78051322D01*
X81584631Y-78032638D01*
X81578226Y-78032134D01*
X81578221Y-78032133D01*
X81549758Y-78029893D01*
X81549750Y-78029893D01*
X81547302Y-78029700D01*
X81114298Y-78029700D01*
X81111850Y-78029893D01*
X81111842Y-78029893D01*
X81083379Y-78032133D01*
X81083374Y-78032134D01*
X81076969Y-78032638D01*
X81012658Y-78051322D01*
X80924812Y-78076843D01*
X80924810Y-78076844D01*
X80917199Y-78079055D01*
X80773993Y-78163747D01*
X80771311Y-78166429D01*
X80706939Y-78191702D01*
X80637316Y-78177800D01*
X80621488Y-78167628D01*
X80617607Y-78163747D01*
X80474401Y-78079055D01*
X80466790Y-78076844D01*
X80466788Y-78076843D01*
X80378942Y-78051322D01*
X80314631Y-78032638D01*
X80308226Y-78032134D01*
X80308221Y-78032133D01*
X80279758Y-78029893D01*
X80279750Y-78029893D01*
X80277302Y-78029700D01*
X79844298Y-78029700D01*
X79841850Y-78029893D01*
X79841842Y-78029893D01*
X79813379Y-78032133D01*
X79813374Y-78032134D01*
X79806969Y-78032638D01*
X79742658Y-78051322D01*
X79654812Y-78076843D01*
X79654810Y-78076844D01*
X79647199Y-78079055D01*
X79640372Y-78083092D01*
X79640373Y-78083092D01*
X79510820Y-78159709D01*
X79510817Y-78159711D01*
X79503993Y-78163747D01*
X79386347Y-78281393D01*
X79382311Y-78288217D01*
X79382309Y-78288220D01*
X79318693Y-78395789D01*
X79301655Y-78424599D01*
X79255238Y-78584369D01*
X79252300Y-78621698D01*
X79252300Y-80404702D01*
X79252493Y-80407150D01*
X79252493Y-80407158D01*
X79254645Y-80434493D01*
X79255238Y-80442031D01*
X79301655Y-80601801D01*
X79318693Y-80630611D01*
X79382309Y-80738180D01*
X79382311Y-80738183D01*
X79386347Y-80745007D01*
X79503993Y-80862653D01*
X79510816Y-80866688D01*
X79510820Y-80866691D01*
X79554008Y-80892232D01*
X79647199Y-80947345D01*
X79654810Y-80949556D01*
X79654812Y-80949557D01*
X79707031Y-80964728D01*
X79806969Y-80993762D01*
X79813374Y-80994266D01*
X79813379Y-80994267D01*
X79841842Y-80996507D01*
X79841850Y-80996507D01*
X79844298Y-80996700D01*
X80277302Y-80996700D01*
X80279750Y-80996507D01*
X80279758Y-80996507D01*
X80308221Y-80994267D01*
X80308226Y-80994266D01*
X80314631Y-80993762D01*
X80414569Y-80964728D01*
X80466788Y-80949557D01*
X80466790Y-80949556D01*
X80474401Y-80947345D01*
X80617607Y-80862653D01*
X80620289Y-80859971D01*
X80684661Y-80834698D01*
X80754284Y-80848600D01*
X80770112Y-80858772D01*
X80773993Y-80862653D01*
X80917199Y-80947345D01*
X80924810Y-80949556D01*
X80924812Y-80949557D01*
X80977031Y-80964728D01*
X81076969Y-80993762D01*
X81083374Y-80994266D01*
X81083379Y-80994267D01*
X81111842Y-80996507D01*
X81111850Y-80996507D01*
X81114298Y-80996700D01*
X81547302Y-80996700D01*
X81549750Y-80996507D01*
X81549758Y-80996507D01*
X81578221Y-80994267D01*
X81578226Y-80994266D01*
X81584631Y-80993762D01*
X81684569Y-80964728D01*
X81736788Y-80949557D01*
X81736790Y-80949556D01*
X81744401Y-80947345D01*
X81887607Y-80862653D01*
X81890547Y-80859713D01*
X81955071Y-80834379D01*
X82024694Y-80848280D01*
X82043440Y-80860329D01*
X82051123Y-80866289D01*
X82094991Y-80892232D01*
X82143443Y-80944125D01*
X82156149Y-81013975D01*
X82151849Y-81035839D01*
X82124888Y-81128641D01*
X82123432Y-81136609D01*
X82126252Y-81150031D01*
X82137713Y-81153000D01*
X82953700Y-81153000D01*
X83021821Y-81173002D01*
X83068314Y-81226658D01*
X83079700Y-81279000D01*
X83079700Y-81387820D01*
X83059698Y-81455941D01*
X83006042Y-81502434D01*
X82953700Y-81513820D01*
X79768490Y-81513820D01*
X79700369Y-81493818D01*
X79679395Y-81476915D01*
X78315405Y-80112924D01*
X78281379Y-80050612D01*
X78278500Y-80023829D01*
X78278500Y-78528469D01*
X78279933Y-78509518D01*
X78282099Y-78495283D01*
X78282099Y-78495281D01*
X78283199Y-78488051D01*
X78278915Y-78435382D01*
X78278500Y-78425167D01*
X78278500Y-77632524D01*
X78298502Y-77564403D01*
X78315326Y-77543507D01*
X78324333Y-77534484D01*
X78329505Y-77529303D01*
X78422315Y-77378738D01*
X78448764Y-77298995D01*
X78475832Y-77217389D01*
X78475832Y-77217387D01*
X78477997Y-77210861D01*
X78488700Y-77106400D01*
X78488700Y-76055600D01*
X78487472Y-76043762D01*
X78478438Y-75956692D01*
X78478437Y-75956688D01*
X78477726Y-75949834D01*
X78465322Y-75912653D01*
X78424068Y-75789002D01*
X78421750Y-75782054D01*
X78328678Y-75631652D01*
X78315482Y-75618479D01*
X78281403Y-75556197D01*
X78278500Y-75529306D01*
X78278500Y-73087883D01*
X78298502Y-73019762D01*
X78352158Y-72973269D01*
X78422432Y-72963165D01*
X78455747Y-72972776D01*
X78530729Y-73006159D01*
X78558537Y-73018540D01*
X78584712Y-73030194D01*
X78678113Y-73050047D01*
X78765056Y-73068528D01*
X78765061Y-73068528D01*
X78771513Y-73069900D01*
X78962487Y-73069900D01*
X78968939Y-73068528D01*
X78968944Y-73068528D01*
X79055887Y-73050047D01*
X79149288Y-73030194D01*
X79155315Y-73027511D01*
X79155323Y-73027508D01*
X79249252Y-72985688D01*
X79319619Y-72976254D01*
X79383916Y-73006361D01*
X79421729Y-73066450D01*
X79426500Y-73100795D01*
X79426500Y-73239050D01*
X79406498Y-73307171D01*
X79396645Y-73319397D01*
X79396811Y-73319525D01*
X79391956Y-73325784D01*
X79386347Y-73331393D01*
X79382311Y-73338217D01*
X79382309Y-73338220D01*
X79318693Y-73445789D01*
X79301655Y-73474599D01*
X79255238Y-73634369D01*
X79254734Y-73640774D01*
X79254733Y-73640779D01*
X79252493Y-73669242D01*
X79252300Y-73671698D01*
X79252300Y-75454702D01*
X79252493Y-75457150D01*
X79252493Y-75457158D01*
X79254189Y-75478700D01*
X79255238Y-75492031D01*
X79270686Y-75545203D01*
X79297611Y-75637880D01*
X79301655Y-75651801D01*
X79305692Y-75658627D01*
X79382309Y-75788180D01*
X79382311Y-75788183D01*
X79386347Y-75795007D01*
X79503993Y-75912653D01*
X79510817Y-75916689D01*
X79510820Y-75916691D01*
X79580816Y-75958086D01*
X79647199Y-75997345D01*
X79654810Y-75999556D01*
X79654812Y-75999557D01*
X79701229Y-76013042D01*
X79806969Y-76043762D01*
X79813374Y-76044266D01*
X79813379Y-76044267D01*
X79841842Y-76046507D01*
X79841850Y-76046507D01*
X79844298Y-76046700D01*
X80277302Y-76046700D01*
X80279750Y-76046507D01*
X80279758Y-76046507D01*
X80308221Y-76044267D01*
X80308226Y-76044266D01*
X80314631Y-76043762D01*
X80420371Y-76013042D01*
X80466788Y-75999557D01*
X80466790Y-75999556D01*
X80474401Y-75997345D01*
X80617607Y-75912653D01*
X80620289Y-75909971D01*
X80684661Y-75884698D01*
X80754284Y-75898600D01*
X80770112Y-75908772D01*
X80773993Y-75912653D01*
X80917199Y-75997345D01*
X80924810Y-75999556D01*
X80924812Y-75999557D01*
X80971229Y-76013042D01*
X81076969Y-76043762D01*
X81083374Y-76044266D01*
X81083379Y-76044267D01*
X81111842Y-76046507D01*
X81111850Y-76046507D01*
X81114298Y-76046700D01*
X81547302Y-76046700D01*
X81549750Y-76046507D01*
X81549758Y-76046507D01*
X81578221Y-76044267D01*
X81578226Y-76044266D01*
X81584631Y-76043762D01*
X81690371Y-76013042D01*
X81736788Y-75999557D01*
X81736790Y-75999556D01*
X81744401Y-75997345D01*
X81887607Y-75912653D01*
X81890289Y-75909971D01*
X81954661Y-75884698D01*
X82024284Y-75898600D01*
X82040112Y-75908772D01*
X82043993Y-75912653D01*
X82187199Y-75997345D01*
X82194810Y-75999556D01*
X82194812Y-75999557D01*
X82241229Y-76013042D01*
X82346969Y-76043762D01*
X82353374Y-76044266D01*
X82353379Y-76044267D01*
X82381842Y-76046507D01*
X82381850Y-76046507D01*
X82384298Y-76046700D01*
X82813011Y-76046700D01*
X82881132Y-76066702D01*
X82927625Y-76120358D01*
X82938321Y-76159530D01*
X82946765Y-76239867D01*
X82951858Y-76288328D01*
X83010873Y-76469956D01*
X83106360Y-76635344D01*
X83110778Y-76640251D01*
X83110779Y-76640252D01*
X83229725Y-76772355D01*
X83234147Y-76777266D01*
X83297939Y-76823614D01*
X83377230Y-76881222D01*
X83388648Y-76889518D01*
X83394676Y-76892202D01*
X83394678Y-76892203D01*
X83557081Y-76964509D01*
X83563112Y-76967194D01*
X83656513Y-76987047D01*
X83743456Y-77005528D01*
X83743461Y-77005528D01*
X83749913Y-77006900D01*
X83940887Y-77006900D01*
X83947339Y-77005528D01*
X83947344Y-77005528D01*
X84034287Y-76987047D01*
X84127688Y-76967194D01*
X84133719Y-76964509D01*
X84296122Y-76892203D01*
X84296124Y-76892202D01*
X84302152Y-76889518D01*
X84313571Y-76881222D01*
X84392861Y-76823614D01*
X84456653Y-76777266D01*
X84461075Y-76772355D01*
X84580021Y-76640252D01*
X84580022Y-76640251D01*
X84584440Y-76635344D01*
X84679927Y-76469956D01*
X84738942Y-76288328D01*
X84744036Y-76239867D01*
X84758214Y-76104965D01*
X84758904Y-76098400D01*
X84753450Y-76046507D01*
X84739632Y-75915035D01*
X84739632Y-75915033D01*
X84738942Y-75908472D01*
X84735735Y-75898600D01*
X84681969Y-75733129D01*
X84679927Y-75726844D01*
X84659045Y-75690675D01*
X84642307Y-75621679D01*
X84647167Y-75592522D01*
X84660914Y-75545203D01*
X84676362Y-75492031D01*
X84677412Y-75478700D01*
X84679107Y-75457158D01*
X84679107Y-75457150D01*
X84679300Y-75454702D01*
X84679300Y-73671698D01*
X84679107Y-73669242D01*
X84676867Y-73640779D01*
X84676866Y-73640774D01*
X84676362Y-73634369D01*
X84629945Y-73474599D01*
X84612907Y-73445789D01*
X84549291Y-73338220D01*
X84549289Y-73338217D01*
X84545253Y-73331393D01*
X84427607Y-73213747D01*
X84420783Y-73209711D01*
X84420780Y-73209709D01*
X84291227Y-73133092D01*
X84291228Y-73133092D01*
X84284401Y-73129055D01*
X84276790Y-73126844D01*
X84276788Y-73126843D01*
X84187128Y-73100795D01*
X84124631Y-73082638D01*
X84118226Y-73082134D01*
X84118221Y-73082133D01*
X84089758Y-73079893D01*
X84089750Y-73079893D01*
X84087302Y-73079700D01*
X83654298Y-73079700D01*
X83651847Y-73079893D01*
X83651819Y-73079894D01*
X83624101Y-73082076D01*
X83554621Y-73067482D01*
X83504061Y-73017640D01*
X83488214Y-72956465D01*
X83488214Y-72955365D01*
X83488904Y-72948800D01*
X83477650Y-72841720D01*
X83469632Y-72765435D01*
X83469632Y-72765433D01*
X83468942Y-72758872D01*
X83409927Y-72577244D01*
X83314440Y-72411856D01*
X83186653Y-72269934D01*
X83032152Y-72157682D01*
X83026124Y-72154998D01*
X83026122Y-72154997D01*
X82863719Y-72082691D01*
X82863718Y-72082691D01*
X82857688Y-72080006D01*
X82750823Y-72057291D01*
X82677344Y-72041672D01*
X82677339Y-72041672D01*
X82670887Y-72040300D01*
X82479913Y-72040300D01*
X82473461Y-72041672D01*
X82473456Y-72041672D01*
X82399977Y-72057291D01*
X82293112Y-72080006D01*
X82287082Y-72082691D01*
X82287081Y-72082691D01*
X82124678Y-72154997D01*
X82124676Y-72154998D01*
X82118648Y-72157682D01*
X82113307Y-72161562D01*
X82113306Y-72161563D01*
X82044641Y-72211451D01*
X81977773Y-72235310D01*
X81908621Y-72219229D01*
X81896519Y-72211451D01*
X81792894Y-72136163D01*
X81792893Y-72136162D01*
X81787552Y-72132282D01*
X81781524Y-72129598D01*
X81781522Y-72129597D01*
X81619119Y-72057291D01*
X81619118Y-72057291D01*
X81613088Y-72054606D01*
X81519688Y-72034753D01*
X81432744Y-72016272D01*
X81432739Y-72016272D01*
X81426287Y-72014900D01*
X81235313Y-72014900D01*
X81228861Y-72016272D01*
X81228856Y-72016272D01*
X81141912Y-72034753D01*
X81048512Y-72054606D01*
X81042482Y-72057291D01*
X81042481Y-72057291D01*
X80994544Y-72078634D01*
X80874048Y-72132282D01*
X80873231Y-72130446D01*
X80813514Y-72144938D01*
X80746420Y-72121722D01*
X80702529Y-72065918D01*
X80693500Y-72019080D01*
X80693500Y-68382503D01*
X81890743Y-68382503D01*
X81928268Y-68667534D01*
X82004129Y-68944836D01*
X82116923Y-69209276D01*
X82264561Y-69455961D01*
X82444313Y-69680328D01*
X82652851Y-69878223D01*
X82886317Y-70045986D01*
X82890112Y-70047995D01*
X82890113Y-70047996D01*
X82911869Y-70059515D01*
X83140392Y-70180512D01*
X83410373Y-70279311D01*
X83691264Y-70340555D01*
X83719841Y-70342804D01*
X83914282Y-70358107D01*
X83914291Y-70358107D01*
X83916739Y-70358300D01*
X84072271Y-70358300D01*
X84074407Y-70358154D01*
X84074418Y-70358154D01*
X84282548Y-70343965D01*
X84282554Y-70343964D01*
X84286825Y-70343673D01*
X84291020Y-70342804D01*
X84291022Y-70342804D01*
X84427584Y-70314523D01*
X84568342Y-70285374D01*
X84839343Y-70189407D01*
X85094812Y-70057550D01*
X85098313Y-70055089D01*
X85098317Y-70055087D01*
X85212417Y-69974896D01*
X85330023Y-69892241D01*
X85540622Y-69696540D01*
X85722713Y-69474068D01*
X85872927Y-69228942D01*
X85988483Y-68965698D01*
X86067244Y-68689206D01*
X86107751Y-68404584D01*
X86107845Y-68386751D01*
X86109235Y-68121383D01*
X86109235Y-68121376D01*
X86109257Y-68117097D01*
X86071732Y-67832066D01*
X85995871Y-67554764D01*
X85883077Y-67290324D01*
X85735439Y-67043639D01*
X85555687Y-66819272D01*
X85347149Y-66621377D01*
X85113683Y-66453614D01*
X85091843Y-66442050D01*
X85068654Y-66429772D01*
X84859608Y-66319088D01*
X84589627Y-66220289D01*
X84308736Y-66159045D01*
X84277685Y-66156601D01*
X84085718Y-66141493D01*
X84085709Y-66141493D01*
X84083261Y-66141300D01*
X83927729Y-66141300D01*
X83925593Y-66141446D01*
X83925582Y-66141446D01*
X83717452Y-66155635D01*
X83717446Y-66155636D01*
X83713175Y-66155927D01*
X83708980Y-66156796D01*
X83708978Y-66156796D01*
X83572416Y-66185077D01*
X83431658Y-66214226D01*
X83160657Y-66310193D01*
X82905188Y-66442050D01*
X82901687Y-66444511D01*
X82901683Y-66444513D01*
X82891594Y-66451604D01*
X82669977Y-66607359D01*
X82459378Y-66803060D01*
X82277287Y-67025532D01*
X82127073Y-67270658D01*
X82011517Y-67533902D01*
X81932756Y-67810394D01*
X81892249Y-68095016D01*
X81892227Y-68099305D01*
X81892226Y-68099312D01*
X81890765Y-68378217D01*
X81890743Y-68382503D01*
X80693500Y-68382503D01*
X80693500Y-63938433D01*
X80713502Y-63870312D01*
X80755678Y-63831000D01*
X80756705Y-63830615D01*
X80873261Y-63743261D01*
X80960615Y-63626705D01*
X81011745Y-63490316D01*
X81018500Y-63428134D01*
X81018500Y-62237784D01*
X81038502Y-62169663D01*
X81092158Y-62123170D01*
X81162432Y-62113066D01*
X81220063Y-62136956D01*
X81248295Y-62158115D01*
X81384684Y-62209245D01*
X81446866Y-62216000D01*
X83793134Y-62216000D01*
X83855316Y-62209245D01*
X83991705Y-62158115D01*
X84108261Y-62070761D01*
X84195615Y-61954205D01*
X84246745Y-61817816D01*
X84253500Y-61755634D01*
X84253500Y-58284366D01*
X84246745Y-58222184D01*
X84195615Y-58085795D01*
X84108261Y-57969239D01*
X83991705Y-57881885D01*
X83855316Y-57830755D01*
X83793134Y-57824000D01*
X81446866Y-57824000D01*
X81384684Y-57830755D01*
X81248295Y-57881885D01*
X81131739Y-57969239D01*
X81044385Y-58085795D01*
X80993255Y-58222184D01*
X80986500Y-58284366D01*
X80986500Y-60849716D01*
X80966498Y-60917837D01*
X80912842Y-60964330D01*
X80842568Y-60974434D01*
X80784937Y-60950544D01*
X80756705Y-60929385D01*
X80620316Y-60878255D01*
X80558134Y-60871500D01*
X79561866Y-60871500D01*
X79499684Y-60878255D01*
X79469229Y-60889672D01*
X79398423Y-60894855D01*
X79380776Y-60889674D01*
X79350316Y-60878255D01*
X79288134Y-60871500D01*
X78291866Y-60871500D01*
X78229684Y-60878255D01*
X78199229Y-60889672D01*
X78128423Y-60894855D01*
X78110776Y-60889674D01*
X78080316Y-60878255D01*
X78018134Y-60871500D01*
X77021866Y-60871500D01*
X76959684Y-60878255D01*
X76929229Y-60889672D01*
X76858423Y-60894855D01*
X76840776Y-60889674D01*
X76810316Y-60878255D01*
X76748134Y-60871500D01*
X75751866Y-60871500D01*
X75689684Y-60878255D01*
X75659229Y-60889672D01*
X75588423Y-60894855D01*
X75570776Y-60889674D01*
X75540316Y-60878255D01*
X75478134Y-60871500D01*
X74481866Y-60871500D01*
X74419684Y-60878255D01*
X74389229Y-60889672D01*
X74318423Y-60894855D01*
X74300776Y-60889674D01*
X74270316Y-60878255D01*
X74208134Y-60871500D01*
X73211866Y-60871500D01*
X73149684Y-60878255D01*
X73118517Y-60889939D01*
X73047712Y-60895122D01*
X73030057Y-60889939D01*
X73007602Y-60881521D01*
X72992351Y-60877895D01*
X72941486Y-60872369D01*
X72934672Y-60872000D01*
X72712115Y-60872000D01*
X72696876Y-60876475D01*
X72695671Y-60877865D01*
X72694000Y-60885548D01*
X72694000Y-63869884D01*
X72698475Y-63885123D01*
X72699865Y-63886328D01*
X72707548Y-63887999D01*
X72934675Y-63887999D01*
X72943688Y-63887511D01*
X73012791Y-63903801D01*
X73062116Y-63954865D01*
X73076500Y-64013327D01*
X73076500Y-71178140D01*
X73056498Y-71246261D01*
X73002842Y-71292754D01*
X72932568Y-71302858D01*
X72924303Y-71301387D01*
X72822144Y-71279672D01*
X72822139Y-71279672D01*
X72815687Y-71278300D01*
X72624713Y-71278300D01*
X72618261Y-71279672D01*
X72618256Y-71279672D01*
X72531313Y-71298153D01*
X72437912Y-71318006D01*
X72431882Y-71320691D01*
X72431881Y-71320691D01*
X72269478Y-71392997D01*
X72269476Y-71392998D01*
X72263448Y-71395682D01*
X72258107Y-71399562D01*
X72258106Y-71399563D01*
X72195660Y-71444933D01*
X72108947Y-71507934D01*
X72104532Y-71512837D01*
X72099620Y-71517260D01*
X72098495Y-71516011D01*
X72045186Y-71548851D01*
X72012000Y-71553300D01*
X69725567Y-71553300D01*
X69714384Y-71552773D01*
X69706891Y-71551098D01*
X69698965Y-71551347D01*
X69698964Y-71551347D01*
X69638814Y-71553238D01*
X69634855Y-71553300D01*
X69606944Y-71553300D01*
X69603010Y-71553797D01*
X69603009Y-71553797D01*
X69602944Y-71553805D01*
X69591107Y-71554738D01*
X69558849Y-71555752D01*
X69554830Y-71555878D01*
X69546911Y-71556127D01*
X69527457Y-71561779D01*
X69508100Y-71565787D01*
X69495870Y-71567332D01*
X69495869Y-71567332D01*
X69488003Y-71568326D01*
X69480632Y-71571245D01*
X69480630Y-71571245D01*
X69446888Y-71584604D01*
X69435658Y-71588449D01*
X69400817Y-71598571D01*
X69400816Y-71598571D01*
X69393207Y-71600782D01*
X69386388Y-71604815D01*
X69386383Y-71604817D01*
X69375772Y-71611093D01*
X69358024Y-71619788D01*
X69339183Y-71627248D01*
X69332767Y-71631910D01*
X69332766Y-71631910D01*
X69303413Y-71653236D01*
X69293493Y-71659752D01*
X69262265Y-71678220D01*
X69262262Y-71678222D01*
X69255438Y-71682258D01*
X69241117Y-71696579D01*
X69226084Y-71709419D01*
X69209693Y-71721328D01*
X69204642Y-71727434D01*
X69181502Y-71755405D01*
X69173512Y-71764184D01*
X68187747Y-72749948D01*
X68179461Y-72757488D01*
X68172982Y-72761600D01*
X68167557Y-72767377D01*
X68126357Y-72811251D01*
X68123602Y-72814093D01*
X68103865Y-72833830D01*
X68101385Y-72837027D01*
X68093682Y-72846047D01*
X68063414Y-72878279D01*
X68059595Y-72885225D01*
X68059593Y-72885228D01*
X68053652Y-72896034D01*
X68042801Y-72912553D01*
X68030386Y-72928559D01*
X68027241Y-72935828D01*
X68027238Y-72935832D01*
X68012826Y-72969137D01*
X68007609Y-72979787D01*
X67986305Y-73018540D01*
X67984334Y-73026215D01*
X67984334Y-73026216D01*
X67981267Y-73038162D01*
X67974863Y-73056866D01*
X67966819Y-73075455D01*
X67965580Y-73083278D01*
X67965577Y-73083288D01*
X67959901Y-73119124D01*
X67957495Y-73130744D01*
X67948472Y-73165889D01*
X67946500Y-73173570D01*
X67946500Y-73193824D01*
X67944949Y-73213534D01*
X67941780Y-73233543D01*
X67942526Y-73241435D01*
X67945941Y-73277561D01*
X67946500Y-73289419D01*
X67946500Y-73801456D01*
X67946997Y-73805387D01*
X67951906Y-73844248D01*
X67952900Y-73860040D01*
X67952900Y-74151060D01*
X67935354Y-74215199D01*
X67875382Y-74316607D01*
X67873171Y-74324217D01*
X67839444Y-74440305D01*
X67830726Y-74470311D01*
X67830221Y-74476730D01*
X67828093Y-74503762D01*
X67828092Y-74503775D01*
X67827900Y-74506221D01*
X67827901Y-74909178D01*
X67828095Y-74911643D01*
X67830094Y-74937052D01*
X67830726Y-74945089D01*
X67875382Y-75098793D01*
X67879416Y-75105614D01*
X67952824Y-75229743D01*
X67952827Y-75229747D01*
X67956858Y-75236563D01*
X67999495Y-75279200D01*
X68033521Y-75341512D01*
X68036400Y-75368295D01*
X68036400Y-75449943D01*
X68040373Y-75463474D01*
X68048271Y-75464609D01*
X68150351Y-75434952D01*
X68220657Y-75434952D01*
X68355325Y-75474077D01*
X68355327Y-75474077D01*
X68361511Y-75475874D01*
X68374162Y-75476870D01*
X68394962Y-75478507D01*
X68394975Y-75478508D01*
X68397421Y-75478700D01*
X68586285Y-75478700D01*
X68775378Y-75478699D01*
X68783166Y-75478086D01*
X68804874Y-75476379D01*
X68804877Y-75476378D01*
X68811289Y-75475874D01*
X68817463Y-75474080D01*
X68817470Y-75474079D01*
X68951247Y-75435212D01*
X69021553Y-75435212D01*
X69155325Y-75474077D01*
X69155327Y-75474077D01*
X69161511Y-75475874D01*
X69174162Y-75476870D01*
X69194962Y-75478507D01*
X69194975Y-75478508D01*
X69197421Y-75478700D01*
X69386285Y-75478700D01*
X69575378Y-75478699D01*
X69583166Y-75478086D01*
X69604874Y-75476379D01*
X69604877Y-75476378D01*
X69611289Y-75475874D01*
X69617463Y-75474080D01*
X69617470Y-75474079D01*
X69751247Y-75435212D01*
X69821553Y-75435212D01*
X69955325Y-75474077D01*
X69955327Y-75474077D01*
X69961511Y-75475874D01*
X69974162Y-75476870D01*
X69994962Y-75478507D01*
X69994975Y-75478508D01*
X69997421Y-75478700D01*
X70186285Y-75478700D01*
X70375378Y-75478699D01*
X70383166Y-75478086D01*
X70404874Y-75476379D01*
X70404877Y-75476378D01*
X70411289Y-75475874D01*
X70552141Y-75434952D01*
X70557383Y-75433429D01*
X70564993Y-75431218D01*
X70687538Y-75358746D01*
X70751677Y-75341200D01*
X71095133Y-75341200D01*
X71106316Y-75341727D01*
X71113809Y-75343402D01*
X71121735Y-75343153D01*
X71121736Y-75343153D01*
X71181886Y-75341262D01*
X71185845Y-75341200D01*
X71213756Y-75341200D01*
X71217691Y-75340703D01*
X71217756Y-75340695D01*
X71229593Y-75339762D01*
X71261851Y-75338748D01*
X71265870Y-75338622D01*
X71273789Y-75338373D01*
X71293243Y-75332721D01*
X71312600Y-75328713D01*
X71324830Y-75327168D01*
X71324831Y-75327168D01*
X71332697Y-75326174D01*
X71367112Y-75312548D01*
X71413496Y-75303700D01*
X71581887Y-75303700D01*
X71588339Y-75302328D01*
X71588344Y-75302328D01*
X71694797Y-75279700D01*
X71768688Y-75263994D01*
X71774719Y-75261309D01*
X71937122Y-75189003D01*
X71937124Y-75189002D01*
X71943152Y-75186318D01*
X72097653Y-75074066D01*
X72102075Y-75069155D01*
X72221021Y-74937052D01*
X72221022Y-74937051D01*
X72225440Y-74932144D01*
X72320927Y-74766756D01*
X72379942Y-74585128D01*
X72380710Y-74577827D01*
X72399214Y-74401765D01*
X72399904Y-74395200D01*
X72392465Y-74324420D01*
X72380632Y-74211835D01*
X72380632Y-74211833D01*
X72379942Y-74205272D01*
X72320927Y-74023644D01*
X72300741Y-73988680D01*
X72283714Y-73959190D01*
X72225440Y-73858256D01*
X72170733Y-73797497D01*
X72143462Y-73767210D01*
X72112744Y-73703203D01*
X72121509Y-73632749D01*
X72166972Y-73578218D01*
X72237098Y-73556900D01*
X73002600Y-73556900D01*
X73070721Y-73576902D01*
X73089947Y-73593243D01*
X73090220Y-73592940D01*
X73095132Y-73597363D01*
X73099547Y-73602266D01*
X73104886Y-73606145D01*
X73195112Y-73671698D01*
X73254048Y-73714518D01*
X73260076Y-73717202D01*
X73260078Y-73717203D01*
X73419642Y-73788245D01*
X73428512Y-73792194D01*
X73521912Y-73812047D01*
X73608856Y-73830528D01*
X73608861Y-73830528D01*
X73615313Y-73831900D01*
X73644906Y-73831900D01*
X73713027Y-73851902D01*
X73759520Y-73905558D01*
X73769624Y-73975832D01*
X73740130Y-74040412D01*
X73734002Y-74046994D01*
X72551252Y-75229743D01*
X71368700Y-76412295D01*
X71306388Y-76446321D01*
X71279605Y-76449200D01*
X70751677Y-76449200D01*
X70687538Y-76431654D01*
X70571814Y-76363216D01*
X70571815Y-76363216D01*
X70564993Y-76359182D01*
X70531658Y-76349497D01*
X70417472Y-76316322D01*
X70417469Y-76316321D01*
X70411289Y-76314526D01*
X70397642Y-76313452D01*
X70377838Y-76311893D01*
X70377825Y-76311892D01*
X70375379Y-76311700D01*
X70186515Y-76311700D01*
X69997422Y-76311701D01*
X69989634Y-76312314D01*
X69967926Y-76314021D01*
X69967923Y-76314022D01*
X69961511Y-76314526D01*
X69955337Y-76316320D01*
X69955330Y-76316321D01*
X69821553Y-76355188D01*
X69751247Y-76355188D01*
X69617475Y-76316323D01*
X69617473Y-76316323D01*
X69611289Y-76314526D01*
X69597642Y-76313452D01*
X69577838Y-76311893D01*
X69577825Y-76311892D01*
X69575379Y-76311700D01*
X69386515Y-76311700D01*
X69197422Y-76311701D01*
X69189634Y-76312314D01*
X69167926Y-76314021D01*
X69167923Y-76314022D01*
X69161511Y-76314526D01*
X69155337Y-76316320D01*
X69155330Y-76316321D01*
X69020657Y-76355448D01*
X68950351Y-76355448D01*
X68853795Y-76327396D01*
X68839695Y-76327436D01*
X68836400Y-76334706D01*
X68836400Y-76422105D01*
X68816398Y-76490226D01*
X68799495Y-76511200D01*
X68756858Y-76553837D01*
X68752825Y-76560657D01*
X68752824Y-76560658D01*
X68694854Y-76658681D01*
X68642961Y-76707134D01*
X68573111Y-76719839D01*
X68507479Y-76692764D01*
X68477946Y-76658681D01*
X68419976Y-76560658D01*
X68419975Y-76560657D01*
X68415942Y-76553837D01*
X68373305Y-76511200D01*
X68339279Y-76448888D01*
X68336400Y-76422105D01*
X68336400Y-76340457D01*
X68332427Y-76326926D01*
X68324529Y-76325791D01*
X68225096Y-76354679D01*
X68154100Y-76354476D01*
X68108365Y-76329708D01*
X68097133Y-76320166D01*
X68089616Y-76313235D01*
X68083921Y-76307540D01*
X68067573Y-76294606D01*
X68061649Y-76289919D01*
X68058245Y-76287128D01*
X68008197Y-76244609D01*
X68008195Y-76244608D01*
X68002615Y-76239867D01*
X67996099Y-76236539D01*
X67991050Y-76233172D01*
X67985921Y-76230005D01*
X67980184Y-76225466D01*
X67914025Y-76194545D01*
X67910125Y-76192639D01*
X67845092Y-76159431D01*
X67837984Y-76157692D01*
X67832341Y-76155593D01*
X67826578Y-76153676D01*
X67819950Y-76150578D01*
X67748483Y-76135713D01*
X67744199Y-76134743D01*
X67685411Y-76120358D01*
X67673290Y-76117392D01*
X67667688Y-76117044D01*
X67667685Y-76117044D01*
X67662136Y-76116700D01*
X67662138Y-76116664D01*
X67658145Y-76116425D01*
X67653953Y-76116051D01*
X67646785Y-76114560D01*
X67580575Y-76116351D01*
X67569379Y-76116654D01*
X67565972Y-76116700D01*
X66869886Y-76116700D01*
X66834733Y-76111697D01*
X66764831Y-76091388D01*
X66764826Y-76091387D01*
X66758654Y-76089594D01*
X66752249Y-76089090D01*
X66752244Y-76089089D01*
X66724340Y-76086893D01*
X66724332Y-76086893D01*
X66721884Y-76086700D01*
X66358400Y-76086700D01*
X66290279Y-76066698D01*
X66243786Y-76013042D01*
X66232400Y-75960700D01*
X66232400Y-75643085D01*
X66740400Y-75643085D01*
X66744875Y-75658324D01*
X66746265Y-75659529D01*
X66753948Y-75661200D01*
X67279958Y-75661200D01*
X67293489Y-75657227D01*
X67294624Y-75649329D01*
X67278759Y-75594722D01*
X67278962Y-75523726D01*
X67317515Y-75464110D01*
X67382180Y-75434801D01*
X67434909Y-75438572D01*
X67519005Y-75463004D01*
X67533105Y-75462964D01*
X67536400Y-75455694D01*
X67536400Y-74975815D01*
X67531925Y-74960576D01*
X67530535Y-74959371D01*
X67522852Y-74957700D01*
X67053026Y-74957700D01*
X67039495Y-74961673D01*
X67038360Y-74969571D01*
X67051144Y-75013575D01*
X67050941Y-75084572D01*
X67012387Y-75144188D01*
X66947722Y-75173496D01*
X66894994Y-75169725D01*
X66764759Y-75131888D01*
X66756791Y-75130432D01*
X66743369Y-75133252D01*
X66740400Y-75144713D01*
X66740400Y-75643085D01*
X66232400Y-75643085D01*
X66232400Y-75146776D01*
X66228056Y-75131981D01*
X66217625Y-75130137D01*
X66208041Y-75131888D01*
X66064616Y-75173557D01*
X66050180Y-75179804D01*
X65922901Y-75255076D01*
X65910474Y-75264716D01*
X65805916Y-75369274D01*
X65796274Y-75381704D01*
X65735751Y-75484044D01*
X65683858Y-75532497D01*
X65614008Y-75545203D01*
X65548377Y-75518128D01*
X65507802Y-75459868D01*
X65501297Y-75419618D01*
X65503535Y-74440305D01*
X67039965Y-74440305D01*
X67040005Y-74454405D01*
X67047275Y-74457700D01*
X67518285Y-74457700D01*
X67533524Y-74453225D01*
X67534729Y-74451835D01*
X67536400Y-74444152D01*
X67536400Y-73965457D01*
X67532427Y-73951926D01*
X67524529Y-73950791D01*
X67415620Y-73982432D01*
X67401183Y-73988680D01*
X67277173Y-74062019D01*
X67264735Y-74071668D01*
X67162868Y-74173535D01*
X67153219Y-74185973D01*
X67079880Y-74309983D01*
X67073632Y-74324420D01*
X67039965Y-74440305D01*
X65503535Y-74440305D01*
X65517377Y-68382503D01*
X66390743Y-68382503D01*
X66428268Y-68667534D01*
X66504129Y-68944836D01*
X66616923Y-69209276D01*
X66764561Y-69455961D01*
X66944313Y-69680328D01*
X67152851Y-69878223D01*
X67386317Y-70045986D01*
X67390112Y-70047995D01*
X67390113Y-70047996D01*
X67411869Y-70059515D01*
X67640392Y-70180512D01*
X67910373Y-70279311D01*
X68191264Y-70340555D01*
X68219841Y-70342804D01*
X68414282Y-70358107D01*
X68414291Y-70358107D01*
X68416739Y-70358300D01*
X68572271Y-70358300D01*
X68574407Y-70358154D01*
X68574418Y-70358154D01*
X68782548Y-70343965D01*
X68782554Y-70343964D01*
X68786825Y-70343673D01*
X68791020Y-70342804D01*
X68791022Y-70342804D01*
X68927584Y-70314523D01*
X69068342Y-70285374D01*
X69339343Y-70189407D01*
X69594812Y-70057550D01*
X69598313Y-70055089D01*
X69598317Y-70055087D01*
X69712417Y-69974896D01*
X69830023Y-69892241D01*
X70040622Y-69696540D01*
X70222713Y-69474068D01*
X70372927Y-69228942D01*
X70488483Y-68965698D01*
X70567244Y-68689206D01*
X70607751Y-68404584D01*
X70607845Y-68386751D01*
X70609235Y-68121383D01*
X70609235Y-68121376D01*
X70609257Y-68117097D01*
X70571732Y-67832066D01*
X70495871Y-67554764D01*
X70383077Y-67290324D01*
X70235439Y-67043639D01*
X70055687Y-66819272D01*
X69847149Y-66621377D01*
X69613683Y-66453614D01*
X69591843Y-66442050D01*
X69568654Y-66429772D01*
X69359608Y-66319088D01*
X69089627Y-66220289D01*
X68808736Y-66159045D01*
X68777685Y-66156601D01*
X68585718Y-66141493D01*
X68585709Y-66141493D01*
X68583261Y-66141300D01*
X68427729Y-66141300D01*
X68425593Y-66141446D01*
X68425582Y-66141446D01*
X68217452Y-66155635D01*
X68217446Y-66155636D01*
X68213175Y-66155927D01*
X68208980Y-66156796D01*
X68208978Y-66156796D01*
X68072416Y-66185077D01*
X67931658Y-66214226D01*
X67660657Y-66310193D01*
X67405188Y-66442050D01*
X67401687Y-66444511D01*
X67401683Y-66444513D01*
X67391594Y-66451604D01*
X67169977Y-66607359D01*
X66959378Y-66803060D01*
X66777287Y-67025532D01*
X66627073Y-67270658D01*
X66511517Y-67533902D01*
X66432756Y-67810394D01*
X66392249Y-68095016D01*
X66392227Y-68099305D01*
X66392226Y-68099312D01*
X66390765Y-68378217D01*
X66390743Y-68382503D01*
X65517377Y-68382503D01*
X65528705Y-63424669D01*
X71482001Y-63424669D01*
X71482371Y-63431490D01*
X71487895Y-63482352D01*
X71491521Y-63497604D01*
X71536676Y-63618054D01*
X71545214Y-63633649D01*
X71621715Y-63735724D01*
X71634276Y-63748285D01*
X71736351Y-63824786D01*
X71751946Y-63833324D01*
X71872394Y-63878478D01*
X71887649Y-63882105D01*
X71938514Y-63887631D01*
X71945328Y-63888000D01*
X72167885Y-63888000D01*
X72183124Y-63883525D01*
X72184329Y-63882135D01*
X72186000Y-63874452D01*
X72186000Y-62652115D01*
X72181525Y-62636876D01*
X72180135Y-62635671D01*
X72172452Y-62634000D01*
X71500116Y-62634000D01*
X71484877Y-62638475D01*
X71483672Y-62639865D01*
X71482001Y-62647548D01*
X71482001Y-63424669D01*
X65528705Y-63424669D01*
X65532519Y-61755634D01*
X68246500Y-61755634D01*
X68253255Y-61817816D01*
X68304385Y-61954205D01*
X68391739Y-62070761D01*
X68508295Y-62158115D01*
X68644684Y-62209245D01*
X68706866Y-62216000D01*
X71053134Y-62216000D01*
X71115316Y-62209245D01*
X71251705Y-62158115D01*
X71317950Y-62108467D01*
X71384454Y-62083620D01*
X71453836Y-62098673D01*
X71476026Y-62114070D01*
X71487865Y-62124329D01*
X71495548Y-62126000D01*
X72167885Y-62126000D01*
X72183124Y-62121525D01*
X72184329Y-62120135D01*
X72186000Y-62112452D01*
X72186000Y-60890116D01*
X72181525Y-60874877D01*
X72180135Y-60873672D01*
X72172452Y-60872001D01*
X71945331Y-60872001D01*
X71938510Y-60872371D01*
X71887648Y-60877895D01*
X71872396Y-60881521D01*
X71751946Y-60926676D01*
X71736352Y-60935213D01*
X71715064Y-60951168D01*
X71648558Y-60976015D01*
X71579175Y-60960962D01*
X71528946Y-60910787D01*
X71513500Y-60850341D01*
X71513500Y-58284366D01*
X71506745Y-58222184D01*
X71455615Y-58085795D01*
X71368261Y-57969239D01*
X71251705Y-57881885D01*
X71115316Y-57830755D01*
X71053134Y-57824000D01*
X68706866Y-57824000D01*
X68644684Y-57830755D01*
X68508295Y-57881885D01*
X68391739Y-57969239D01*
X68304385Y-58085795D01*
X68253255Y-58222184D01*
X68246500Y-58284366D01*
X68246500Y-61755634D01*
X65532519Y-61755634D01*
X65556452Y-51281812D01*
X65576610Y-51213737D01*
X65630372Y-51167367D01*
X65682452Y-51156100D01*
X86913448Y-51156100D01*
X86981569Y-51176102D01*
G37*
%TD.AperFunction*%
%TA.AperFunction,Conductor*%
G36*
X75258543Y-74566309D02*
G01*
X75315175Y-74609127D01*
X75333780Y-74645217D01*
X75365473Y-74742756D01*
X75460960Y-74908144D01*
X75588747Y-75050066D01*
X75743248Y-75162318D01*
X75749274Y-75165001D01*
X75749281Y-75165005D01*
X75774555Y-75176257D01*
X75828651Y-75222237D01*
X75849301Y-75290164D01*
X75840305Y-75321918D01*
X75842707Y-75322441D01*
X75834200Y-75361548D01*
X75834200Y-76709000D01*
X75814198Y-76777121D01*
X75760542Y-76823614D01*
X75708200Y-76835000D01*
X74590316Y-76835000D01*
X74575077Y-76839475D01*
X74573872Y-76840865D01*
X74572201Y-76848548D01*
X74572201Y-77103095D01*
X74572538Y-77109614D01*
X74582457Y-77205206D01*
X74585349Y-77218600D01*
X74636134Y-77370824D01*
X74638718Y-77441774D01*
X74602534Y-77502858D01*
X74539070Y-77534682D01*
X74516610Y-77536700D01*
X72340294Y-77536700D01*
X72272173Y-77516698D01*
X72225680Y-77463042D01*
X72215576Y-77392768D01*
X72245070Y-77328188D01*
X72251199Y-77321605D01*
X73263919Y-76308885D01*
X74572200Y-76308885D01*
X74576675Y-76324124D01*
X74578065Y-76325329D01*
X74585748Y-76327000D01*
X75308085Y-76327000D01*
X75323324Y-76322525D01*
X75324529Y-76321135D01*
X75326200Y-76313452D01*
X75326200Y-75366116D01*
X75321725Y-75350877D01*
X75320335Y-75349672D01*
X75312652Y-75348001D01*
X75283105Y-75348001D01*
X75276586Y-75348338D01*
X75180994Y-75358257D01*
X75167600Y-75361149D01*
X75013416Y-75412588D01*
X75000238Y-75418761D01*
X74862393Y-75504063D01*
X74850992Y-75513099D01*
X74736461Y-75627829D01*
X74727449Y-75639240D01*
X74642384Y-75777243D01*
X74636237Y-75790424D01*
X74585062Y-75944710D01*
X74582195Y-75958086D01*
X74572528Y-76052438D01*
X74572200Y-76058855D01*
X74572200Y-76308885D01*
X73263919Y-76308885D01*
X74956699Y-74616105D01*
X75019011Y-74582079D01*
X75045794Y-74579200D01*
X75101687Y-74579200D01*
X75116315Y-74576091D01*
X75187752Y-74560907D01*
X75258543Y-74566309D01*
G37*
%TD.AperFunction*%
%TD*%
M02*
